<?xml version="1.0" encoding="UTF-8"?>
<svg width="83.512" height="67.856" fill="none" inkscape:version="1.1.1 (c3084ef, 2021-09-22)" sodipodi:docname="rain-dark.svg" version="1.1" viewBox="0 0 83.512 67.856" xmlns="http://www.w3.org/2000/svg" xmlns:inkscape="http://www.inkscape.org/namespaces/inkscape" xmlns:sodipodi="http://sodipodi.sourceforge.net/DTD/sodipodi-0.dtd">
 <sodipodi:namedview bordercolor="#666666" borderopacity="1.0" inkscape:current-layer="svg874" inkscape:cx="40.766972" inkscape:cy="32.829358" inkscape:pagecheckerboard="0" inkscape:pageopacity="0.0" inkscape:pageshadow="2" inkscape:window-height="778" inkscape:window-maximized="0" inkscape:window-width="1312" inkscape:window-x="274" inkscape:window-y="1105" inkscape:zoom="6.4880952" pagecolor="#ffffff" showgrid="false"/>
 <g transform="translate(0 -.69812)" clip-path="url(#clip0_0_182)" clip-rule="evenodd" fill-rule="evenodd">
  <g fill="#C0EAF9">
   <path d="m23.153 54.192s-2.7882 7.815-2.0561 10.812c0.605 2.4798 3.0841 4.0144 5.5304 3.4228 2.455-0.5937 3.9433-3.091 3.3383-5.5687-0.7321-2.9993-6.8126-8.6663-6.8126-8.6663z" style="fill:#3e86a2"/>
   <path d="m40.744 53.958s-2.7882 7.815-2.0561 10.814c0.605 2.4776 3.0841 4.0122 5.5303 3.4206 2.455-0.5937 3.9434-3.091 3.3384-5.5687-0.7321-2.9993-6.8126-8.6663-6.8126-8.6663z" style="fill:#3e86a2"/>
   <path d="m59.023 53.715s-2.7882 7.8149-2.0561 10.812c0.605 2.4799 3.0841 4.0145 5.5303 3.4229 2.455-0.5938 3.9434-3.0911 3.3362-5.5687-0.7321-2.9994-6.8104-8.6663-6.8104-8.6663z" style="fill:#3e86a2"/>
  </g>
  <path d="m12.647 23.025c-6.9726 0-12.648 5.7062-12.648 12.722 0 7.0117 5.675 12.72 12.648 12.72h54.99c8.7547 0 15.874-7.1645 15.874-15.97s-7.1196-15.97-15.874-15.97c-1.6286 0-3.2485 0.2532-4.8092 0.7487l-1.017 0.3253-0.3595-1.0129c-3.3603-9.5046-12.343-15.89-22.349-15.89-12.233 0-22.387 9.2208-23.618 21.447l-0.1139 1.1329-1.1223-0.1397c-0.6225-0.0786-1.1311-0.1135-1.6002-0.1135z" fill="#edf3f9"/>
 </g>
 <defs>
  <clipPath id="clip0_0_182">
   <rect width="84" height="69" fill="#fff"/>
  </clipPath>
 </defs>
</svg>
