<svg width="70" height="69" viewBox="0 0 70 69" fill="none" xmlns="http://www.w3.org/2000/svg">
<path fill-rule="evenodd" clip-rule="evenodd" d="M35.5777 19.0602C44.2094 19.0669 51.2006 26.0674 51.194 34.6968C51.1873 43.3262 44.1849 50.3156 35.5532 50.3089C26.9215 50.3022 19.9303 43.3017 19.937 34.6723C19.9436 26.0429 26.946 19.0535 35.5777 19.0602Z" fill="#F9C900"/>
<path fill-rule="evenodd" clip-rule="evenodd" d="M31.851 55.5247C31.851 55.7117 31.8265 55.903 31.7754 56.0922L29.1823 65.7385C28.8684 66.9067 27.6665 67.601 26.498 67.2872C25.3294 66.9735 24.635 65.7719 24.951 64.6014L27.5441 54.9551C27.8579 53.7868 29.0599 53.0948 30.2284 53.4086C31.2078 53.6711 31.851 54.5568 31.851 55.5247Z" fill="#F9C900"/>
<path fill-rule="evenodd" clip-rule="evenodd" d="M20.9944 51.5643C20.9944 52.154 20.7563 52.7437 20.2888 53.1754L12.9415 59.9423C12.0511 60.7634 10.6645 60.7055 9.84536 59.8154C9.02404 58.9276 9.07968 57.5413 9.97001 56.7201L17.3174 49.951C18.2077 49.1322 19.5944 49.19 20.4135 50.0779C20.803 50.5007 20.9944 51.0325 20.9944 51.5643Z" fill="#F9C900"/>
<path fill-rule="evenodd" clip-rule="evenodd" d="M15.0564 40.9285C15.0564 41.9031 14.3998 42.791 13.4138 43.0469L3.74043 45.5458C2.56743 45.8484 1.37217 45.1452 1.06946 43.9726C0.766754 42.8021 1.47011 41.6071 2.64311 41.3045L12.3165 38.8034C13.4872 38.5007 14.6825 39.2061 14.9852 40.3766C15.0342 40.5613 15.0564 40.746 15.0564 40.9285Z" fill="#F9C900"/>
<path fill-rule="evenodd" clip-rule="evenodd" d="M15.364 28.656C15.364 28.8362 15.3417 29.0187 15.295 29.2011C14.9923 30.3738 13.797 31.0792 12.6262 30.7766L2.95067 28.2866C1.77767 27.9862 1.07209 26.7912 1.3748 25.6208C1.67528 24.4481 2.87054 23.7427 4.04354 24.0453L13.7191 26.5353C14.7074 26.789 15.364 27.6791 15.364 28.656Z" fill="#F9C900"/>
<path fill-rule="evenodd" clip-rule="evenodd" d="M20.9404 17.9891C20.9404 18.5365 20.7356 19.0861 20.3238 19.5112C19.4825 20.379 18.0936 20.4035 17.2255 19.5601L10.0473 12.613C9.1792 11.7719 9.15471 10.3833 9.99829 9.51548C10.8396 8.64542 12.2263 8.62317 13.0966 9.4643L20.2726 16.4137C20.7178 16.8431 20.9404 17.415 20.9404 17.9891Z" fill="#F9C900"/>
<path fill-rule="evenodd" clip-rule="evenodd" d="M31.1198 11.8985C31.1198 12.8776 30.4565 13.7699 29.4638 14.0191C28.2908 14.3151 27.1 13.603 26.804 12.4303L24.3623 2.74397C24.0662 1.56905 24.7785 0.380789 25.9515 0.0848352C27.1245 -0.211118 28.3153 0.50095 28.6113 1.67364L31.053 11.36C31.0975 11.5402 31.1198 11.7205 31.1198 11.8985Z" fill="#F9C900"/>
<path fill-rule="evenodd" clip-rule="evenodd" d="M45.789 2.92622C45.789 3.11091 45.7645 3.29783 45.7155 3.48252L43.1759 13.1444C42.8687 14.3126 41.6713 15.0136 40.5005 14.7043C39.3297 14.3972 38.6308 13.1978 38.938 12.0296L41.4776 2.36992C41.7848 1.19945 42.9845 0.500735 44.1553 0.807815C45.1391 1.06594 45.789 1.9538 45.789 2.92622Z" fill="#F9C900"/>
<path fill-rule="evenodd" clip-rule="evenodd" d="M61.6779 11.267C61.6779 11.8789 61.422 12.4864 60.9256 12.9181L53.3868 19.4758C52.4742 20.268 51.0898 20.1723 50.2952 19.26C49.5006 18.3476 49.5963 16.9635 50.5111 16.1691L58.0477 9.61366C58.9625 8.81926 60.3447 8.91494 61.1393 9.82728C61.5021 10.2434 61.6779 10.7574 61.6779 11.267Z" fill="#F9C900"/>
<path fill-rule="evenodd" clip-rule="evenodd" d="M69.4471 25.8865C69.4471 26.8478 68.8083 27.7289 67.8357 27.996L58.2001 30.6395C57.0338 30.9599 55.8274 30.2724 55.5069 29.1063C55.1864 27.9381 55.8742 26.7343 57.0405 26.4138L66.676 23.7703C67.8423 23.4521 69.0487 24.1374 69.3692 25.3035C69.4227 25.4993 69.4471 25.6951 69.4471 25.8865Z" fill="#F9C900"/>
<path fill-rule="evenodd" clip-rule="evenodd" d="M69.2815 42.9652C69.2815 43.1454 69.2593 43.3279 69.2125 43.5103C68.9098 44.683 67.7146 45.3884 66.5438 45.0858L56.8682 42.5958C55.6952 42.2954 54.9896 41.1004 55.2923 39.93C55.5928 38.7573 56.7881 38.0519 57.9611 38.3545L67.6367 40.8445C68.6249 41.0982 69.2815 41.9883 69.2815 42.9652Z" fill="#F9C900"/>
<path fill-rule="evenodd" clip-rule="evenodd" d="M61.099 58.0063C61.099 58.5737 60.8786 59.1434 60.4401 59.5706C59.5743 60.4162 58.1876 60.4006 57.3418 59.535L50.3572 52.3943C49.5114 51.5287 49.5248 50.1424 50.3906 49.2968C51.2565 48.4512 52.6431 48.4668 53.4889 49.3302L60.4735 56.4731C60.892 56.9004 61.099 57.4522 61.099 58.0063Z" fill="#F9C900"/>
<path fill-rule="evenodd" clip-rule="evenodd" d="M46.0141 66.0847C46.0141 67.0504 45.3686 67.9338 44.3914 68.1964C43.2229 68.5124 42.021 67.8204 41.7071 66.6521L39.1074 57.008C38.7913 55.8398 39.4835 54.636 40.6521 54.3222C41.8206 54.0062 43.0226 54.6983 43.3386 55.8665L45.9384 65.5128C45.9896 65.7042 46.0141 65.8955 46.0141 66.0847Z" fill="#F9C900"/>
</svg>
