<?xml version="1.0" encoding="UTF-8"?>
<svg width="26.445mm" height="21.152mm" fill="none" inkscape:version="1.1.1 (c3084ef, 2021-09-22)" sodipodi:docname="rainy.svg" version="1.1" viewBox="0 0 99.951 79.944" xmlns="http://www.w3.org/2000/svg" xmlns:inkscape="http://www.inkscape.org/namespaces/inkscape" xmlns:sodipodi="http://sodipodi.sourceforge.net/DTD/sodipodi-0.dtd">
 <sodipodi:namedview bordercolor="#666666" borderopacity="1.0" inkscape:current-layer="svg947" inkscape:cx="29.816514" inkscape:cy="28.807339" inkscape:document-units="mm" inkscape:pagecheckerboard="0" inkscape:pageopacity="0.0" inkscape:pageshadow="2" inkscape:window-height="778" inkscape:window-maximized="0" inkscape:window-width="1312" inkscape:window-x="0" inkscape:window-y="25" inkscape:zoom="5.45" pagecolor="#ffffff" showgrid="false" units="mm"/>
 <g transform="translate(0 -.64954)" clip-path="url(#clip0_0_261)" clip-rule="evenodd" fill-rule="evenodd">
  <g fill="#c0eaf9">
   <path d="m22.87 51.879s-2.7273 7.2847-2.0455 10.066c0.5619 2.3007 2.9272 3.7103 5.2778 3.1435 2.3548-0.5689 3.7984-2.8988 3.2344-5.1994-0.6797-2.7838-6.4667-8.0105-6.4667-8.0105z" style="fill:#3e86a2"/>
   <path d="m39.73 51.54s-2.7272 7.2847-2.0454 10.066c0.5619 2.3007 2.9272 3.7103 5.2778 3.1435 2.3548-0.5689 3.7984-2.8988 3.2344-5.1994-0.6797-2.7838-6.4668-8.0105-6.4668-8.0105z" style="fill:#3e86a2"/>
   <path d="m57.25 51.189s-2.7273 7.2847-2.0455 10.066c0.5619 2.3007 2.9272 3.7103 5.2778 3.1435 2.3548-0.5688 3.7984-2.8988 3.2344-5.1994-0.6797-2.7838-6.4667-8.0105-6.4667-8.0105z" style="fill:#3e86a2"/>
   <path d="m73.753 50.372s-2.7273 7.2847-2.0455 10.066c0.5619 2.3006 2.9272 3.7103 5.2778 3.1435 2.3548-0.5689 3.7984-2.8988 3.2344-5.1995-0.6797-2.7838-6.4667-8.0104-6.4667-8.0104z" style="fill:#3e86a2"/>
   <path d="m32.761 67.258s-2.7272 7.2847-2.0454 10.066c0.5618 2.3006 2.9272 3.7103 5.2778 3.1435 2.3548-0.5689 3.7984-2.8988 3.2344-5.1995-0.6797-2.7837-6.4668-8.0104-6.4668-8.0104z" style="fill:#3e86a2"/>
   <path d="m50.28 66.906s-2.7273 7.2847-2.0454 10.066c0.5618 2.3006 2.9271 3.7103 5.2777 3.1435 2.3548-0.5689 3.7984-2.8988 3.2345-5.1995-0.6798-2.7838-6.4668-8.0104-6.4668-8.0104z" style="fill:#3e86a2"/>
   <path d="m66.784 66.089s-2.7273 7.2847-2.0455 10.066c0.5619 2.3006 2.9272 3.7103 5.2778 3.1435 2.3548-0.5689 3.7984-2.8988 3.2344-5.1994-0.6797-2.7838-6.4667-8.0105-6.4667-8.0105z" style="fill:#3e86a2"/>
  </g>
  <path d="m88.96 24.086c6.0606 0 10.991 4.9652 10.991 11.072 0 6.103-4.9306 11.068-10.991 11.068h-47.788c-7.6052 0-13.794-6.2348-13.794-13.898 0-7.6633 6.189-13.898 13.794-13.898 1.4163 0 2.8241 0.2196 4.1793 0.6525l0.886 0.2824 0.3114-0.8805c2.9209-8.2719 10.726-13.829 19.421-13.829 10.631 0 19.455 8.023 20.526 18.665l0.0989 0.9851 0.9765-0.1213c0.5387-0.0669 0.9806-0.0983 1.3888-0.0983z" fill="#c8d0d6"/>
  <path d="m12.142 22.041c-6.694 0-12.142 5.4672-12.142 12.189 0 6.7179 5.4482 12.187 12.142 12.187h52.792c8.4049 0 15.24-6.8643 15.24-15.301s-6.835-15.301-15.24-15.301c-1.5635 0-3.1186 0.2426-4.617 0.7174l-0.9764 0.3116-0.3451-0.9704c-3.226-9.1064-11.85-15.224-21.456-15.224-11.745 0-21.492 8.8345-22.675 20.549l-0.1094 1.0855-1.0775-0.1339c-0.5976-0.0753-1.0858-0.1087-1.5362-0.1087z" fill="#edf3f9"/>
 </g>
 <defs>
  <clipPath id="clip0_0_261">
   <rect width="100" height="81" fill="#fff"/>
  </clipPath>
 </defs>
</svg>
