<svg width="100" height="56" viewBox="0 0 100 56" fill="none" xmlns="http://www.w3.org/2000/svg">
<g clip-path="url(#clip0_0_383)">
<path fill-rule="evenodd" clip-rule="evenodd" d="M88.6201 20.0381C94.557 20.0381 99.3869 24.9061 99.3869 30.8938C99.3869 36.8774 94.557 41.7455 88.6201 41.7455H41.8071C34.357 41.7455 28.2944 35.6327 28.2944 28.1194C28.2944 20.6061 34.357 14.4933 41.8071 14.4933C43.1944 14.4933 44.5735 14.7086 45.9011 15.1331L46.7689 15.4099L47.074 14.5466C49.9353 6.43655 57.5811 0.988159 66.0989 0.988159C76.5133 0.988159 85.1569 8.85419 86.2061 19.2875L86.303 20.2534L87.2595 20.1344C87.7873 20.0688 88.2202 20.0381 88.6201 20.0381Z" fill="#C8D0D6"/>
<path fill-rule="evenodd" clip-rule="evenodd" d="M11.8943 31.3306C5.33686 31.3306 -0.000183105 36.6908 -0.000183105 43.2814C-0.000183105 49.8678 5.33686 55.2301 11.8943 55.2301H63.6094C71.8427 55.2301 78.5383 48.5001 78.5383 40.2281C78.5383 31.956 71.8427 25.226 63.6094 25.226C62.0777 25.226 60.5543 25.4639 59.0866 25.9294L58.1301 26.2349L57.792 25.2834C54.6319 16.3552 46.1841 10.3572 36.7737 10.3572C25.2688 10.3572 15.7203 19.0189 14.5618 30.5042L14.4546 31.5684L13.3991 31.4372C12.8137 31.3634 12.3354 31.3306 11.8943 31.3306Z" fill="#EDF3F9"/>
</g>
<defs>
<clipPath id="clip0_0_383">
<rect width="100" height="56" fill="white"/>
</clipPath>
</defs>
</svg>
