<svg width="2703" height="4626" xmlns="http://www.w3.org/2000/svg"><path d="M1714.977 396.957c-8.474 14.459-16.909 46.614-18.303 69.768-.702 11.674-3.629 19.372-12.545 33-6.396 9.776-13.073 19.125-14.839 20.775-1.765 1.65-5.394 6.536-8.063 10.859-2.669 4.322-12.948 13.772-22.841 21-18.861 13.778-22.726 19.243-26.017 36.784-2.164 11.534-15.362 24.896-43.319 43.857-19.027 12.904-49.463 35.864-61.55 46.43-8.751 7.65-8.793 7.811-1.5 5.814 4.125-1.129 8.175-2.954 9-4.057 2.515-3.36 23.004-15.187 26.31-15.187 1.705 0 3.957 7.763 5.002 17.25 1.463 13.271.155 24.17-5.67 47.25-11.938 47.302-9.324 58.282 3.572 15 8.804-29.55 10.776-41.081 11.006-64.361l.28-28.36 29.887-22.813c28.974-22.116 30.049-23.364 35.2-40.857 4.76-16.163 6.983-19.193 21.333-29.076 8.81-6.068 18.909-11.033 22.441-11.033 13.123 0 28.828 35.599 17.605 39.906-2.218.851-5.673 8.083-7.677 16.071-2.004 7.988-4.982 19.923-6.619 26.523-6.628 26.725-14.699 36.067-35.759 41.391-9.311 2.354-16.087 16.924-13.452 28.922 1.069 4.869 7.254 13.65 13.743 19.512 6.489 5.863 11.798 11.481 11.798 12.485 0 1.003 9.45 11.944 21 24.311 19.315 20.682 26.144 33.879 17.533 33.879-1.907 0-7.644 3.176-12.75 7.058-5.106 3.882-16.752 10.707-25.881 15.167-9.128 4.461-21.278 12.509-27 17.886-5.721 5.377-19.052 14.833-29.623 21.015-21.407 12.516-59.804 43.325-65.413 52.486-1.999 3.264 7.451-2.37 21-12.521 13.549-10.15 25.084-19.498 25.634-20.773 1.732-4.016 12.5-2.511 12.5 1.747 0 2.236-4.387 7.705-9.75 12.155-9.19 7.625-9.727 9.157-9.358 26.685.253 11.998 3.308 26.53 8.611 40.96 6.748 18.359 7.953 25.692 6.728 40.944-1.305 16.258-3.317 21.143-16.111 39.107-8.041 11.291-16.982 22.904-19.87 25.807-2.887 2.902-5.25 6.657-5.25 8.344 0 5.252-24.501 29.937-29.632 29.855-2.677-.043-14.946-3.418-27.263-7.5-12.317-4.082-26.402-7.422-31.3-7.422s-16.42-2.532-25.605-5.626c-9.185-3.094-24.125-7.171-33.2-9.06-33.614-6.997-67.866-14.984-80.268-18.719-11.274-3.394-13.368-3.244-17.893 1.28-3.206 3.206-3.761 5.125-1.482 5.125 6.604 0 3.802 7.183-6.107 15.652-5.362 4.584-12.002 8.337-14.755 8.341-8.294.012-14.495 3.394-14.495 7.908 0 7.726-18.096 24.321-32.42 29.733-7.744 2.925-18.781 8.479-24.526 12.342-5.746 3.863-12.113 7.024-14.149 7.024-7.86 0-24.938 10.377-26.809 16.291-1.081 3.415-7.169 14.455-13.53 24.533-6.362 10.078-11.566 19.287-11.566 20.464 0 1.178-2.097 4.237-4.659 6.8-3.848 3.848-8.94 4.273-29.25 2.44-13.525-1.22-34.716-2.004-47.091-1.742-19.468.413-23.511 1.466-30 7.817-9.748 9.541-21.155 18.451-44.414 34.691-10.403 7.263-32.678 22.926-49.5 34.806-30.352 21.435-36.167 24.64-93.151 51.338-16.261 7.619-28.007 14.371-26.102 15.006 1.904.635 16.891-5.286 33.303-13.157 36.274-17.398 43.606-15.742 8.424 1.902-13.783 6.913-25.735 13.527-26.56 14.698-.825 1.171-10.95 7.379-22.5 13.795-11.55 6.417-28.149 15.97-36.887 21.23-9.421 5.67-22.243 10.403-31.5 11.628-8.587 1.135-23.713 3.872-33.613 6.082-9.9 2.209-30.482 5.379-45.737 7.044-23.081 2.52-29.88 4.529-40.5 11.97-12.362 8.661-57.935 55.83-63.516 65.741-2.603 4.621-14.901 19.082-26.497 31.156-2.887 3.007-4.159 5.467-2.826 5.467 1.334 0 12.216-10.125 24.183-22.5s22.688-22.507 23.825-22.516c1.138-.009 7.468-7.581 14.068-16.826 16.615-23.275 34.093-36.061 54.962-40.208 9.371-1.863 21.763-4.676 27.538-6.251 5.775-1.576 23.325-4.322 39-6.101 48.875-5.55 52.014-6.197 56.818-11.705 2.575-2.952 14.118-10.367 25.65-16.477 11.532-6.111 24.357-13.777 28.5-17.036 4.143-3.259 11.582-7.631 16.532-9.716 4.95-2.084 15.339-8.647 23.087-14.583 7.749-5.936 19.899-13.708 27-17.27 7.102-3.563 28.101-17.824 46.663-31.691 18.563-13.867 33.69-24.18 33.616-22.917-.074 1.264-10.997 10.397-24.274 20.297-13.276 9.9-30.399 23.738-38.05 30.75-7.651 7.013-15.537 12.75-17.524 12.75-1.988 0-4.428 2.363-5.424 5.25-1.79 5.189-51.971 46.134-59.302 48.387-2.086.641-9.419 5.71-16.297 11.264-6.878 5.555-13.641 10.099-15.031 10.099-1.389 0-6.349 3.545-11.021 7.878-8.495 7.877-8.496 7.883-6.62 36.75 4.065 62.572 4.227 60.734-5.823 66.297-4.95 2.74-15.075 7.095-22.5 9.677-50.465 17.551-94.13 34.072-109.77 41.532-17.521 8.357-18.658 9.594-27.75 30.178-7.034 15.925-9.461 25.814-9.407 38.326.076 17.319 3.932 39.248 8.768 49.862 4.336 9.515 15.563 41.298 17.375 49.187 1.632 7.108 1.457 7.165-16.033 5.307-12.457-1.324-19.195-.719-22.798 2.046-2.814 2.159-13.614 17.824-24 34.811-18.522 30.292-19.318 31.11-41.385 42.491-22.509 11.61-23.597 16.626-1.313 6.053a4028.326 4028.326 0 0 1 22.874-10.752c6.872-3.198 13.216-9.313 16.748-16.145 13.81-26.708 20.346-38.067 22.441-38.998 1.238-.55 2.25-2.865 2.25-5.144 0-7.138 10.725-10.673 23.603-7.779 8.81 1.979 14.216 1.51 21.119-1.833 10.846-5.253 11.207-7.617 3.581-23.431-3.133-6.497-9.883-24.221-15-39.386-12.048-35.708-12.721-61.053-2.04-76.792 3.995-5.887 7.707-13.779 8.25-17.539.978-6.775 7.033-10.583 41.487-26.089 7.425-3.342 18.9-7.639 25.5-9.55 6.6-1.911 16.05-5.278 21-7.482 21.106-9.397 41.13-16.475 46.611-16.475 3.239 0 5.889-1.181 5.889-2.625s3.713-3.432 8.25-4.419c4.538-.986 9.976-2.946 12.085-4.354 4.911-3.279 5.642-38.045 1.042-49.547-3.556-8.894-4.481-35.384-1.59-45.555 1.483-5.216 28.81-25.021 50.933-36.914 4.004-2.152 7.28-5.043 7.28-6.424 0-1.382 3.271-3.332 7.268-4.336 3.998-1.003 11.136-5.537 15.862-10.075 4.726-4.538 12.593-11.531 17.482-15.54 4.888-4.01 19.953-16.835 33.476-28.5 34.908-30.113 49.479-41.144 51.578-39.045 1.003 1.003-.198 3.415-2.671 5.359-8.009 6.298-22.548 27.052-31.461 44.909-4.785 9.588-9.788 18.105-11.117 18.927-1.33.821-2.396 3.776-2.371 6.566.028 3.088.908 3.814 2.25 1.854 1.212-1.77 4.311-3.992 6.886-4.938 2.574-.945 6.341-7.259 8.37-14.031 2.029-6.771 4.678-12.312 5.886-12.312 1.209 0 4.854-5.062 8.101-11.25 3.247-6.187 6.663-11.925 7.591-12.75.928-.825 4.941-6.851 8.919-13.391 3.978-6.539 9.306-14.256 11.842-17.148 7.321-8.352 17.452-18.685 21.701-22.135 2.149-1.745 8.633-9.004 14.408-16.131 22.494-27.759 22.663-27.848 49.5-26.059 13.2.879 35.975 1.996 50.611 2.482l26.611.882 8.535-15c4.695-8.25 11.281-21.075 14.636-28.5 3.355-7.425 7.26-15.523 8.678-17.996 1.418-2.473 16.607-11.554 33.754-20.18 40.598-20.423 53.495-28.434 53.594-33.288.118-5.764 6.211-10.963 17.42-14.863 5.412-1.883 11.645-5.167 13.851-7.298 17.474-16.879 20.204-18.095 35.965-16.028 8.44 1.107 25.47 4.662 37.845 7.9 12.375 3.238 40.42 9.903 62.321 14.81 21.902 4.907 44.309 10.797 49.792 13.088 5.484 2.291 16.868 5.115 25.298 6.274 15.137 2.082 15.478 1.95 27.353-10.533 6.614-6.953 17.022-19.896 23.129-28.764 6.108-8.867 12.23-16.122 13.606-16.122 1.375 0 2.501-2.025 2.501-4.5s2.61-4.5 5.799-4.5c4.095 0 8.945 5.923 16.5 20.152 8.625 16.242 10.701 23.438 10.701 37.09 0 50.105-19.672 82.311-62.334 102.05-11.091 5.132-23.541 12.494-27.666 16.36-4.125 3.866-12.285 9.028-18.133 11.471-5.848 2.443-16.345 9.663-23.326 16.045l-12.694 11.604-.986 43.364c-.985 43.358-.987 43.367-11.774 63.003-17.063 31.06-31.454 54.258-38.854 62.632-3.756 4.251-13.401 16.504-21.432 27.229-17.254 23.039-24.944 30.066-46.051 42.084-8.662 4.932-15.75 10.035-15.75 11.339 0 3.676-18.746 9.577-30.423 9.577-7.457 0-13.912 2.844-22.287 9.82-6.485 5.401-16.515 13.333-22.29 17.626-5.775 4.293-21.739 18.611-35.476 31.818-23.26 22.362-26.248 24.262-43.5 27.65-10.188 2-22.232 5.025-26.764 6.722-9.133 3.418-44.26 43.038-44.26 49.92 0 3.067 1.663 2.445 5.602-2.097 3.081-3.552 7.131-6.459 9-6.459 1.869 0 3.398-1.978 3.398-4.394 0-2.417 2.609-5.791 5.797-7.497 3.188-1.707 6.654-5.804 7.702-9.106 1.048-3.302 4.402-6.003 7.453-6.003s6.032-1.452 6.623-3.226c1.445-4.334 17.425-.22 17.425 4.486 0 1.985-2.836 6.652-6.302 10.373-3.466 3.72-5.555 7.51-4.643 8.422 2.128 2.128 10.945-6.605 10.945-10.841 0-1.768 1.862-3.214 4.138-3.214 5.655 0 28.862-22.913 28.862-28.497 0-2.477 1.824-4.503 4.053-4.503s10.193-6.412 17.698-14.25c19.622-20.493 40.225-39.75 42.528-39.75 1.091 0 5.636-3.48 10.102-7.733 9.744-9.282 18.983-13.267 30.754-13.267 12.217 0 32.45-8.619 36.058-15.361 1.66-3.101 6.188-5.639 10.063-5.639 9.032 0 10.045 5.444 7.913 42.532-1.599 27.818-2.174 29.763-13.734 46.5-6.635 9.607-13.945 21.169-16.243 25.693-2.298 4.523-9.019 12.784-14.935 18.357-5.916 5.573-13.789 14.022-17.495 18.775-3.706 4.754-14.181 17.671-23.278 28.704-9.097 11.034-22.939 30.083-30.762 42.332-25.261 39.557-39.125 60.502-43.219 65.292-2.201 2.577-9.398 15.402-15.992 28.5-6.594 13.098-16.571 28.913-22.171 35.144-5.6 6.231-9.263 12.248-8.14 13.371 1.123 1.123 5.025-1.368 8.671-5.537 3.646-4.168 8.992-8.455 11.879-9.526 2.888-1.072 5.25-3.949 5.25-6.394 0-2.445 1.797-5.524 3.994-6.844 4.586-2.755 14.006-20.84 14.006-26.891 0-3.902 15.311-27.296 26.153-39.958 6.437-7.517 13.41-7.715 19.882-.564 5.434 6.005 6.571 12.514 2.185 12.514-1.529 0-7.266 7.602-12.75 16.893-21.931 37.158-29.721 50.939-32.846 58.107-9.996 22.927-14.918 30.005-32.211 46.322-8.849 8.348-17.286 15.628-18.75 16.178-1.465.55-2.663 2.313-2.663 3.917 0 2.8-38.981 53.144-48.566 62.723-2.553 2.552-5.574 7.574-6.712 11.161-1.138 3.586-9.129 13.986-17.757 23.11-11.554 12.218-17.84 16.589-23.858 16.589-17.352 0-113.217 24.417-124.252 31.647-3.948 2.586-8.019 6.986-9.047 9.778-1.029 2.791-2.779 5.75-3.889 6.575-1.11.825-5.793 9.966-10.406 20.312-8.158 18.297-26.507 36.688-36.604 36.688-2.15 0-3.909 1.493-3.909 3.317 0 2.861-4.006 8.59-18.045 25.806-1.625 1.993-2.955 4.94-2.955 6.55 0 1.609-6.109 7.931-13.576 14.05-15.537 12.731-15.939 15.568-1.161 8.196 11.84-5.907 19.905-14.555 22.538-24.169 1.017-3.712 3.053-6.75 4.524-6.75s2.675-1.34 2.675-2.977c0-5.41 11.942-16.836 29.412-28.142 15.223-9.852 18.05-13.305 24.371-29.763 3.932-10.24 8.965-19.698 11.183-21.017 2.219-1.32 4.034-4.05 4.034-6.068 0-6.25 26.256-17.018 52.477-21.521 6.588-1.131 13.338-2.942 15-4.023 4.547-2.958 34.678-9.077 45.773-9.296 5.363-.106 9.75 1.247 9.75 3.007 0 3.72-14.851 24.26-19.887 27.506-3.121 2.011-6.465 13.444-15.822 54.087C995.238 2148.397 995.2 2151 999 2151c1.65 0 3-2.244 3-4.986 0-12.582 17.031-61.014 21.456-61.014 1.399 0 2.573-2.362 2.609-5.25.036-2.887 6.788-11.955 15.004-20.149 8.216-8.195 15.703-17.307 16.637-20.25.934-2.943 2.741-5.351 4.015-5.351 1.274 0 3.981-3.654 6.016-8.121 2.035-4.466 6.302-9.942 9.481-12.17 3.18-2.227 5.782-5.998 5.782-8.379 0-2.382 1.35-4.33 3-4.33s3-1.973 3-4.384c0-2.411 5.063-9.499 11.25-15.75 6.188-6.251 13.166-15.078 15.507-19.616 2.341-4.537 5.379-8.25 6.75-8.25 1.371 0 2.493-1.528 2.493-3.396 0-1.867 4.388-7.661 9.75-12.874 5.363-5.214 14.17-14.485 19.573-20.605 16.292-18.452 18.767-16.379 24.369 20.417 3.831 25.167 1.713 32.669-11.887 42.093-9.104 6.31-12.553 11.401-16.187 23.903-5.295 18.213-5.982 29.659-1.618 26.962 1.65-1.02 3-6.526 3-12.237 0-11.852 10.766-30.678 22.384-39.141 9.424-6.865 17.918-29.061 13.971-36.509-1.49-2.812-3.54-16.056-4.555-29.43-1.581-20.839-1.054-25.345 3.685-31.5 3.041-3.951 10.637-17.308 16.879-29.683 6.241-12.375 12.356-23.175 13.588-24 1.232-.825 3.187-4.537 4.346-8.25 1.158-3.712 3.365-6.75 4.904-6.75 1.539 0 2.798-2.146 2.798-4.769s2.449-7.011 5.443-9.75c2.994-2.74 7.13-10.04 9.192-16.223 3.436-10.309 3.084-12.463-4.247-25.932-7.669-14.09-8.243-27.326-1.186-27.326 1.539 0 2.798-2.025 2.798-4.5s1.079-4.5 2.397-4.5c1.319 0 4.126-4.781 6.239-10.624 2.113-5.843 6.434-12.243 9.603-14.221 3.169-1.979 5.761-4.676 5.761-5.993 0-1.316 5.4-8.014 12-14.882 6.6-6.869 12-13.628 12-15.021 0-1.392 3.038-5.65 6.75-9.461 19.094-19.601 32.694-36.821 38.415-48.64 3.504-7.237 7.6-13.158 9.103-13.158 1.502 0 2.732-1.929 2.732-4.286 0-2.357 2.035-6.32 4.522-8.807 4.327-4.328 5.12-10.95 8.691-72.559.874-15.065 2.518-19.705 9.67-27.284 15.858-16.806 28.055-32.53 28.086-36.208.037-4.327 9.497-9.856 16.864-9.856 9.165 0 37.474 21.841 43.422 33.5 3.113 6.101 7.029 11.939 8.702 12.974 1.674 1.034 3.043 4.739 3.043 8.234s5.151 17.252 11.447 30.573c6.295 13.32 12.972 27.833 14.836 32.25 4.035 9.563 14.963 14.728 47.217 22.32l24 5.649 2.488 12c8.292 39.991 11.917 49.989 20.398 56.26 4.738 3.503 8.614 7.923 8.614 9.823 0 1.899 3.117 4.874 6.928 6.61 8.252 3.76 13.385 18.989 17.349 51.474 1.533 12.558 4.116 32.283 5.74 43.833 1.624 11.55 3.634 42.307 4.467 68.35 1.347 42.149.843 49.337-4.584 65.447-3.443 10.221-10.016 21.928-15.102 26.9-8.67 8.475-10.09 8.811-38.151 9.022-44.03.331-59.252 3.199-66.608 12.55-5.808 7.383-7.546 7.819-27.866 6.987-30.998-1.269-33.361.516-30.829 23.289 1.129 10.15 3.988 22.375 6.354 27.166s4.302 13.071 4.302 18.4c0 10.896-4.598 13.277-25.768 13.348-12.414.041-12.856.344-36.522 24.961-50.38 52.407-98.942 98.003-104.533 98.151-1.473.039-10.102 9.591-19.177 21.227-20.318 26.052-46.048 75.122-54.114 103.202-6.747 23.489-18.419 49.439-28.336 63-3.62 4.95-11.722 19.446-18.004 32.213-10.592 21.526-44.926 67.888-50.482 68.165-3.611.181-35.064 15.337-35.064 16.897 0 .737 3.551.448 7.892-.641l7.892-1.981-2.201 23.673c-1.211 13.021-2.836 24.717-3.611 25.992-3.923 6.45-34.741 23.925-54.785 31.066-12.478 4.445-26.062 11.042-30.187 14.659-4.125 3.618-9.862 7.408-12.75 8.423-2.887 1.015-5.25 3.785-5.25 6.156 0 8.405-12.537 27.63-22.444 34.419-9.669 6.625-10.599 6.715-24.553 2.383-20.592-6.393-53.39-13.924-60.641-13.924-8.576 0-25.314 15.482-31.463 29.102-4.913 10.885-6.321 11.71-31.272 18.322-14.37 3.808-37.385 8.806-51.146 11.106-13.76 2.3-26.585 5.364-28.5 6.809-4.625 3.492-27.976 11.697-40.486 14.226-6.8 1.376-16.542-.079-30.416-4.539-18.423-5.925-22.853-6.264-45.495-3.486-13.796 1.693-28.459 4.548-32.584 6.345-6.008 2.617-4.217 2.852 9 1.178 32.798-4.154 67.045-2.182 80.393 4.627 10.283 5.247 13.625 5.717 19.99 2.817 10.433-4.753 11.805-2.254 7.992 14.566-1.799 7.935-4.352 19.827-5.675 26.427-2.348 11.722-2.749 12.042-17.302 13.794-19.543 2.354-48.861 10.568-54.912 15.385-6.297 5.012-29.407 25.819-39.231 35.321-4.265 4.125-10.455 8.888-13.755 10.583-3.3 1.696-7.706 8.446-9.792 15-2.085 6.555-4.942 14.617-6.348 17.917-9.376 21.999-15.36 40.529-15.36 47.56 0 2.823-3.037 6.426-6.75 8.007-6.652 2.831-6.641 2.863.75 2.153 6.339-.609 8.386-3.507 13.225-18.72 3.148-9.9 7.394-22.05 9.434-27a1284.84 1284.84 0 0 0 6.652-16.5 2702.73 2702.73 0 0 1 6.251-15.75c1.932-4.816 5.609-8.25 8.834-8.25 3.039 0 9.48-4.976 14.315-11.058 4.834-6.082 10.139-12.11 11.789-13.395 1.65-1.286 7.727-6.281 13.504-11.099 9.956-8.303 14.877-10.188 48.626-18.627 15.95-3.989 31.408-1.97 47.201 6.163 46.269 23.828 89.336 40.094 106.045 40.053 5.293-.013 19.749-3.04 32.124-6.726 31.743-9.455 56.918-15.083 68.017-15.206 8.42-.093 9.915 1.193 12.959 11.145 3.919 12.808 8.498 24.183 12.379 30.75 1.463 2.475 3.866 7.257 5.341 10.627 2.447 5.59 5.009 6.064 29.243 5.412 43.077-1.16 48.826 2.655 27.824 18.461-27.069 20.372-29.582 23.164-35.878 39.875-8.164 21.666-8.902 40.961-2.108 55.135 2.903 6.056 6.082 15.033 7.065 19.948 1.47 7.35.644 9.301-4.647 10.98-3.538 1.123-11.442 7.154-17.564 13.401-8.907 9.09-14.1 11.744-25.99 13.286-14.563 1.889-24.772 4.644-47.452 12.805-6.221 2.238-19.046 4.102-28.5 4.141-23.669.098-47.877 10.689-102.147 44.69-12.728 7.975-17.461 7.864-21.943-.511-1.986-3.712-11.146-15.607-20.355-26.431-9.209-10.825-20.119-25.447-24.244-32.494-4.125-7.046-10.782-16.901-14.794-21.898-6.709-8.358-8.466-8.973-21.926-7.68-8.048.773-16.241 3.116-18.207 5.206-2.845 3.025-1.892 3.502 4.677 2.339 11.662-2.064 10.238 1.486-3.75 9.348-6.6 3.709-12 8.008-12 9.553 0 1.545-6.731 6.521-14.957 11.058-12.732 7.022-14.963 9.581-15 17.207l-.043 8.958 6.715-9.452c6.583-9.267 50.096-39.964 56.648-39.964 4.401 0 20.254 17.485 29.637 32.687 4.125 6.683 9.221 12.188 11.324 12.232 2.104.045 5.108 3.456 6.676 7.581 1.568 4.125 3.964 7.5 5.323 7.5 2.247 0 9.677 16.944 9.677 22.066 0 1.178-6.717 1.25-14.926.161-10.755-1.427-17.673-.666-24.75 2.723-18.712 8.959-53.324 50.076-53.324 63.345 0 3.436-14.827 14.754-25.363 19.362-4.221 1.846-10.395 7.078-16.098 13.644-21.531 24.787-54.894 36.012-86.039 28.948-7.473-1.695-11.265-.235-22.346 8.605-7.341 5.855-18.141 15.972-24 22.482-5.86 6.51-15.041 16.413-20.404 22.008-5.362 5.594-9.75 10.778-9.75 11.519 0 3.775 12.494-6.29 27.145-21.869 9.049-9.622 22.109-21.897 29.022-27.279 12.205-9.502 13.311-9.763 38.171-9 15.721.482 25.613 2.028 25.632 4.005.016 1.771-7.387 10.546-16.453 19.5-15.919 15.724-19.322 20.78-13.986 20.78 2.392 0 16.703-12.992 59.617-54.126 10.256-9.831 19.719-17.874 21.028-17.874 1.309 0 4.067-2.7 6.128-6s5.684-6 8.051-6c2.368 0 6.069-2.453 8.225-5.452 2.156-2.998 8.258-7.985 13.559-11.081 6.192-3.616 10.352-8.874 11.632-14.7 2.272-10.346 6.42-18.336 13.979-26.93 2.888-3.283 5.25-7.064 5.25-8.403 0-1.339 2.025-2.434 4.5-2.434s4.5-1.37 4.5-3.044c0-5.391 19.177-14.934 30-14.928 5.775.003 15.632 1.43 21.904 3.172 8.614 2.392 13.567 2.209 20.25-.749 4.865-2.154 8.846-4.936 8.846-6.183 0-1.248 3.231-2.268 7.179-2.268 3.949 0 7.843-1.73 8.654-3.844.811-2.114 9.056-7.556 18.321-12.092 9.265-4.537 16.855-9.22 16.865-10.406.033-3.743 18.152-12.658 25.724-12.658 8.739 0 9.354 6.373 2.725 28.227-2.458 8.1-4.468 19.659-4.468 25.689 0 12.154-4.637 17.537-33 38.309-9.075 6.647-21.526 16.627-27.669 22.18-11.145 10.073-11.173 10.16-13.004 40.095l-1.835 30 6.272-9c5.298-7.603 5.975-11.678 4.366-26.25-1.34-12.135-.878-17.25 1.557-17.25 1.904 0 4.745-3.375 6.313-7.5 1.568-4.125 4.641-7.5 6.828-7.5 6.994 0 20.124-7.368 20.149-11.307.022-3.698 35.681-39.647 39.357-39.678 1.009-.008 1.167-3.503.352-7.765-.814-4.263-.077-12.7 1.638-18.75 12.74-44.92 12.978-45.5 18.652-45.5 3.119 0 6.572-1.459 7.674-3.243 1.125-1.82 5.307-2.414 9.527-1.355 4.588 1.151 14.846-.739 26.298-4.846 17.331-6.215 19.151-6.359 23.65-1.859 6.487 6.486 6.171 10.025-2.188 24.539-3.885 6.745-9.472 21.328-12.416 32.406-4.977 18.728-5.008 20.668-.437 27.644 2.704 4.127 4.916 11.684 4.916 16.794 0 11.224-11.846 37.126-23.938 52.341-4.853 6.108-9.73 14.025-10.837 17.592-1.107 3.568-4.701 10.303-7.986 14.966-9.471 13.442-11.112 26.157-12.852 99.521-1.895 79.934-2.225 82.941-10.102 92.108-3.257 3.791-8.703 10.136-12.103 14.101-3.4 3.965-6.182 8.321-6.182 9.68s-8.775 11.159-19.5 21.779-19.5 21.452-19.5 24.071c0 2.618-1.237 4.761-2.75 4.761-1.512 0-3.875 3.225-5.25 7.167-3.5 10.034-26.195 28.116-39.931 31.814-6.325 1.704-14.666 5.754-18.535 9.002l-7.034 5.905 9.75-1.819c18.884-3.523 11.347 8.318-37 58.129-16.861 17.371-19.24 18.802-31.254 18.802-21.936 0-52.117-6.35-58.689-12.348-6.979-6.369-17.135-8.28-10.907-2.052 1.98 1.98 3.6 6.862 3.6 10.85 0 6.133-1.166 7.027-7.572 5.802-4.164-.796-8.192-.443-8.951.785-.759 1.228 2.648 3.038 7.572 4.023 4.923.984 8.951 3.568 8.951 5.742 0 6.759-30.833 37.578-44.522 44.501-8.286 4.191-22.043 7.408-37.829 8.847-24.735 2.255-35.727 6.236-49.324 17.864-11.691 9.998-4.696 10.476 10.811.737 17.988-11.296 27.132-13.453 46.274-10.913 14.734 1.954 15.121 2.257 13.468 10.521-1.523 7.616-14.406 25.481-37.782 52.392-8.334 9.593-21.808 14.72-50.673 19.28-17.293 2.732-20.602 5.318-36.423 28.469-5.638 8.25-12.653 17.599-15.588 20.775-16.068 17.389-35.235 61.725-26.684 61.725 1.65 0 3.921-4.91 5.047-10.911 1.126-6.001 3.93-13.089 6.232-15.75 2.302-2.661 10.321-14.117 17.821-25.456 7.499-11.339 20.723-27.877 29.386-36.75 14.823-15.182 16.621-16.134 30.519-16.151 8.122-.011 18.634-2.036 23.36-4.5 4.726-2.465 10.135-4.482 12.021-4.482 3.404 0 22.886-19.568 22.886-22.987 0-.982 4.388-6.865 9.75-13.073 12.183-14.104 18.257-21.47 35.25-42.75 7.425-9.299 15.188-16.97 17.25-17.048 2.063-.078 3.75-2.062 3.75-4.408 0-2.347 5.092-8.759 11.316-14.25 6.223-5.491 14.661-15.166 18.75-21.499l7.434-11.515 28.717 1.866c31.965 2.076 31.816 2.136 57.616-23.153 6.497-6.368 13.515-10.924 15.598-10.125 2.082.799 4.533 8.651 5.446 17.448.914 8.796 3.125 28.685 4.914 44.196 3.146 27.27 3.041 28.351-3.171 32.702-3.534 2.475-16.032 13.218-27.773 23.872s-26.174 22.469-32.073 26.255c-15.995 10.264-29.562 24.908-31.454 33.951-2.691 12.863-5.387 16.091-16.419 19.656-8.961 2.897-10.851 5.227-13.649 16.839-2.465 10.226-5.563 14.829-12.847 19.082-7.02 4.1-9.125 7.096-7.838 11.151 2.187 6.892-9.389 46.648-16.536 56.79-2.907 4.125-6.231 11.871-7.388 17.213-1.284 5.93-6.688 13.638-13.873 19.788-7.78 6.66-11.77 12.579-11.77 17.463 0 4.064-1.687 9.514-3.75 12.11-3.279 4.128-41.756 18.482-83.25 31.056-25.266 7.656-35.945 12.272-42.727 18.469-6.867 6.275-9.303 6.999-44.575 13.25-18.269 3.237-20.07 4.248-23.25 13.043-4.687 12.962-4.411 19.789.72 17.82 2.293-.88 3.56-3.928 2.816-6.774-2.343-8.957 8.228-14.57 31.602-16.78l22.085-2.087-1.558 11.464c-.857 6.306-2.95 16.865-4.65 23.465-1.7 6.6-4.498 19.975-6.217 29.722-2.956 16.749-10.53 28.778-18.121 28.778-1.719 0-3.125 1.28-3.125 2.844 0 3.437 18.044-2.113 22.717-6.988 1.769-1.846 4.928-12.127 7.02-22.846 2.092-10.72 4.826-20.17 6.075-21 1.249-.831 3.091-8.62 4.094-17.309 1.003-8.69 3.909-18.778 6.459-22.418 2.549-3.64 4.635-9.087 4.635-12.104 0-6.078 12.166-12.174 34.112-17.092 7.513-1.684 18.12-5.566 23.571-8.628 5.451-3.062 16.303-6.525 24.114-7.697 12.62-1.892 14.203-1.506 14.203 3.463 0 3.076-4.104 11.174-9.121 17.995-9.094 12.366-9.11 12.461-5.62 32.505 4.496 25.814.665 44.261-16.775 80.775-22.398 46.897-28.564 61.152-30.382 70.242-1.989 9.943-11.249 21.258-17.398 21.258-3.832 0-7.704 6.154-7.704 12.245 0 5.178 4.573 2.765 7.539-3.977 1.628-3.703 5.661-7.235 8.961-7.848 7.535-1.399 9.313-4.188 14.998-23.53 2.524-8.586 7.135-17.394 10.248-19.574 3.113-2.181 6.131-7.292 6.707-11.36.597-4.215 3.381-7.84 6.474-8.429 5.007-.955 5.278.903 3.496 23.969l-1.932 25.004 12.403 23.308c6.822 12.82 12.829 28.05 13.349 33.844.52 5.795 1.955 11.506 3.19 12.692 5.181 4.975-2.626-32.378-10.522-50.344-10.878-24.752-13.534-37.929-8.796-43.638 2.511-3.027 2.964-9.288 1.455-20.128-3.482-25.012-2.594-38.13 2.999-44.311 2.83-3.126 7.628-16.201 10.662-29.054 4.579-19.395 4.982-26.525 2.368-41.929-3.072-18.107-2.927-18.876 5.929-31.5 9.856-14.048 20.012-26.302 32.444-39.148 5.323-5.5 7.856-11.269 7.68-17.491-.195-6.834 2.448-11.917 10.014-19.265 7.436-7.221 11.227-14.404 13.708-25.972 1.886-8.794 5.062-17.356 7.059-19.027 1.996-1.67 7.443-13.837 12.103-27.037 4.765-13.498 12.19-27.859 16.968-32.82 6.298-6.537 8.496-11.776 8.496-20.25 0-6.305 1.478-11.43 3.297-11.43 1.813 0 7.755-2.116 13.204-4.701 7.448-3.535 10.38-7.225 11.815-14.872 2.105-11.22 22.293-34.427 29.949-34.427 2.604 0 4.735-1.99 4.735-4.423s3.716-6.344 8.257-8.693c4.541-2.348 10.826-7.108 13.965-10.577 3.139-3.469 8.199-6.307 11.243-6.307 3.044 0 5.535-1.701 5.535-3.781 0-4.398 12.932-19.03 18.443-20.867 2.691-.897 3.529-8.034 2.944-25.053-1.728-50.209-3.535-81.171-5.294-90.734-1.516-8.239-.813-10.2 4.122-11.491 3.273-.855 8.748-6.51 12.167-12.565 3.419-6.055 14.406-18.372 24.417-27.372 10.011-8.999 18.201-17.561 18.201-19.026 0-1.466 2.363-5.759 5.25-9.541 2.888-3.781 7.275-9.987 9.75-13.79 6.329-9.725 25.997-29.78 29.205-29.78 1.471 0 4.529-4.725 6.795-10.5 5.923-15.095 16.548-14.713 20.842.75 1.719 6.188 3.132 12.277 3.141 13.533.009 1.255 2.78 8.159 6.156 15.343l6.139 13.06-6.632 11.657c-3.647 6.411-10.318 15.707-14.823 20.657-4.505 4.95-11.666 15.958-15.912 24.462-6.698 13.414-7.137 15.946-3.316 19.117 5.831 4.839 5.57 11.661-.712 18.603-4.187 4.627-4.457 6.711-1.483 11.472 2.897 4.639 2.661 9.618-1.167 24.582-2.641 10.32-5.951 20.993-7.357 23.717-4.045 7.839 8.94 46.316 18.071 53.547 1.041.825 3.772 6.139 6.069 11.808 5.032 12.426 21.646 30.192 28.234 30.192 6.181 0 6.287 16.507.25 39-2.436 9.075-4.445 27.68-4.464 41.344-.028 19.559-1.017 25.221-4.647 26.614-6.738 2.585-13.436 17.253-13.079 28.643l.31 9.899 3.009-11.338c1.655-6.236 7.169-15.498 12.254-20.583 7.032-7.033 9.374-12.218 9.784-21.662 1.259-29.015 4.984-49.917 8.897-49.917 2.187 0 7.792 3.147 12.456 6.994s16.58 11.086 26.48 16.086c9.9 5 22.05 11.295 27 13.987 4.95 2.693 10.839 4.904 13.087 4.915 5.312.024-21.115-17.969-38.884-26.475-7.589-3.632-17.387-10.632-21.773-15.555-4.387-4.924-9.316-8.952-10.953-8.952-1.637 0-2.998-6.412-3.023-14.25-.054-16.858-1.871-20.346-12.752-24.483-8.248-3.136-23.323-23.963-33.85-46.767-3.047-6.6-6.413-12.675-7.482-13.5-7.08-5.467-4.295-43.011 4.497-60.635 2.479-4.968 3.66-12.48 2.71-17.229-1.085-5.424.217-11.322 3.657-16.573 4.066-6.204 4.57-9.387 2.112-13.323-1.794-2.873-2.522-11.443-1.639-19.286 1.245-11.041 3.425-15.42 10.015-20.112 4.633-3.299 9.356-8.937 10.496-12.53 1.141-3.593 3.92-8.379 6.178-10.636 6.132-6.133 4.989-22.965-3.435-50.583-8.095-26.541-9.434-54.468-7.6-158.593.77-43.685 4.797-64.5 12.481-64.5 1.462 0 2.658-2.457 2.658-5.46 0-3.002 3.729-9.637 8.287-14.742 21.167-23.708 36.867-69.269 27.683-80.334-7.242-8.726 1.261-48.699 13.53-63.61 1.65-2.005 4.688-5.661 6.75-8.123 2.063-2.463 3.75-6.56 3.75-9.104 0-2.545 1.96-4.627 4.356-4.627 5.069 0 25.644-20.31 25.644-25.313 0-1.867 4.05-5.786 9-8.71 10.182-6.014 12.08-18.503 4.904-32.256-6.836-13.101-8.437-29.26-4.599-46.414 2.008-8.969 4.447-16.328 5.422-16.353.975-.026 9.128-6.776 18.117-15 8.989-8.225 18.102-14.954 20.25-14.954 2.148 0 3.906-1.35 3.906-3s2.7-3 6-3 6-1.35 6-3 2.025-3 4.5-3 4.5-1.204 4.5-2.675c0-1.471 3.563-3.569 7.918-4.662 12.606-3.164 43.082-17.432 43.082-20.17 0-1.371 2.491-2.493 5.535-2.493s7.979-2.7 10.965-6c2.986-3.3 7.147-6 9.246-6 7.03 0 72.136-70.205 75.932-81.878.648-1.992 3.685-7.205 6.75-11.585 3.064-4.38 5.572-9.952 5.572-12.383 0-2.431 2.025-6.1 4.5-8.154 2.475-2.054 4.5-6.062 4.5-8.906 0-2.845 2.159-9.501 4.799-14.792 2.639-5.29 5.547-17.985 6.462-28.211 1.627-18.198 17.536-61.404 26.171-71.077 2.216-2.483 12.296-21.389 22.399-42.014 19.316-39.428 23.313-46.676 29.417-53.335 2.061-2.249 7.439-10.406 11.951-18.127 7.947-13.598 13.237-20.925 21.051-29.158 2.063-2.174 3.75-4.819 3.75-5.88s1.688-3.81 3.75-6.11c12.501-13.94 12.75-14.774 12.75-42.66v-27.912l14.604-13.409c8.033-7.375 16.808-13.426 19.5-13.446 6.362-.049 49.167-41.628 47.453-46.094-.72-1.877-3.094-18.009-5.274-35.849-2.777-22.725-3.01-33.047-.778-34.478 1.752-1.123 4.134-5.079 5.293-8.792 1.158-3.712 3.365-6.75 4.904-6.75 1.539 0 2.798-3.284 2.798-7.298 0-4.663 2.166-7.985 6-9.202 3.3-1.047 6-3.417 6-5.267 0-5.46 13.176-23.19 17.25-23.213 2.063-.011 3.75-3.198 3.75-7.082 0-7.215 12.214-22.938 17.819-22.938 1.708 0 6.49-5.361 10.626-11.913 7.842-12.423 26.228-31.718 57.753-60.608 10.215-9.362 19.446-20.499 20.513-24.75 1.067-4.251 3.044-7.729 4.394-7.729 4.515 0 11.895-18.79 11.895-30.284 0-6.249 1.165-12.082 2.588-12.962 1.424-.88 4.237-8.047 6.251-15.927 5.341-20.892 8.55-27.827 12.875-27.827 6.921 0 11.654 12.177 13.227 34.026.85 11.811 2.931 25.142 4.625 29.625 2.195 5.808 1.997 12.664-.687 23.852-2.807 11.7-2.889 15.994-.323 16.849 6.254 2.085 3.585 11.996-5.227 19.411-4.769 4.013-14.677 14.058-22.016 22.322l-13.345 15.026-2.674 34.194c-3.223 41.228-2.494 92.134 1.386 96.81 3.097 3.731 5.049 44.676 3.809 79.885-.702 19.945 3.704 62.193 6.811 65.3.64.64 8.372 1.579 17.182 2.087 8.81.508 17.706 1.079 19.768 1.269 8.662.795.726 23.311-14.395 40.844-2.847 3.3-7.391 13.763-10.099 23.25-3.128 10.958-6.534 17.25-9.34 17.25-2.429 0-4.416 1.35-4.416 3s-1.705 3-3.788 3c-2.083 0-6.322 3.375-9.42 7.5s-6.808 7.5-8.245 7.5c-6.808 0-32.739 20.612-37.137 29.519-2.725 5.519-5.544 20.342-6.275 33-1.747 30.223-8.329 55.514-17.619 67.693-4.134 5.42-7.516 10.931-7.516 12.248 0 1.316-5.854 9.289-13.008 17.717-22.75 26.799-29.62 40.216-35.496 69.323-1.665 8.25-4.13 16.35-5.477 18-3.395 4.157-11.912 61.175-13.272 88.847l-1.123 22.847 13.441 13.025c13.012 12.611 13.377 13.46 11.472 26.653-3.139 21.737-1.938 46.238 2.945 60.078 6.15 17.429 5.867 51.723-.541 65.597-2.783 6.024-18.983 25.012-36 42.195-17.018 17.183-30.941 32.3-30.941 33.591 0 5.468-15.937 31.697-24.122 39.699-4.883 4.774-8.878 9.951-8.878 11.504 0 4.484-30.445 35.464-34.852 35.464-5.811 0-50.056 34.571-71.324 55.728-20.909 20.801-28.17 29.8-32.118 39.81-1.527 3.871-7.243 12.646-12.703 19.5-5.459 6.854-11.75 18.248-13.98 25.319-2.684 8.511-8.951 17.314-18.539 26.039-10.251 9.33-14.484 15.472-14.484 21.018 0 4.31-2.637 10.667-5.859 14.126-15.166 16.279-21.754 69.898-15.35 124.936 4.078 35.049 2.299 40.875-15.704 51.432a8262.381 8262.381 0 0 1-24.193 14.107c-19.955 11.593-34.301 24.137-39.829 34.825-5.491 10.62-3.217 33.692 3.579 36.3 2.396.919 4.356 4.334 4.356 7.589 0 3.254 1.158 6.633 2.573 7.507 1.416.875 4.924 11.417 7.797 23.427 2.873 12.011 9.705 30.612 15.183 41.337 23.872 46.738 25.908 51.757 24.028 59.245-1.032 4.114-3.836 9.438-6.229 11.832-2.394 2.393-4.489 7.293-4.656 10.887-.589 12.673.873 27.046 3.384 33.255 1.997 4.94 2.58 3.571 2.73-6.41.104-6.979 3.81-21.505 8.234-32.279l8.045-19.589-6.993-20.22c-3.847-11.122-8.925-22.472-11.286-25.224-2.361-2.751-3.846-8.122-3.301-11.934.824-5.764 4.278-7.81 20.491-12.137 10.725-2.863 22.929-5.255 27.12-5.316 4.191-.06 15.507-2.165 25.148-4.676s29.838-5.849 44.881-7.419c26.394-2.753 27.53-2.62 32.46 3.816 2.809 3.668 5.912 14.094 6.895 23.169 2.711 25.036 11.895 51.688 31.914 92.615 14.545 29.734 17.803 38.982 16.38 46.5-.977 5.162-2.634 14.448-3.682 20.635-1.048 6.188-2.741 11.25-3.762 11.25-4.348 0-26.691 23.339-31.315 32.711-5.152 10.44-6.963 33.289-2.639 33.289 1.32 0 4.056-8.02 6.08-17.821 3.331-16.125 5.388-19.366 21.601-34.038 11.328-10.251 17.919-18.593 17.919-22.678 0-3.555 1.35-6.463 3-6.463s3-2.025 3-4.5c0-6.975 11.369-5.305 15.314 2.25 1.938 3.713 9.073 13.034 15.855 20.714 14.504 16.425 14.82 16.843 30.233 40.087 6.547 9.872 15.035 21.222 18.864 25.222 6.536 6.828 6.838 8.8 4.94 32.201-1.467 18.077-.994 26.167 1.722 29.439 2.831 3.412 3.21 14.139 1.552 43.948-1.416 25.449-1.155 38.792.735 37.624 2.832-1.75 4.328-10.131 9.682-54.244 2.003-16.5 1.564-22.764-2.138-30.528-3.777-7.92-4.101-13.228-1.714-28.05 2.844-17.661 2.618-18.823-6.676-34.25-9.047-15.02-15.88-24.326-24.619-33.533-2.062-2.174-3.75-5.398-3.75-7.166 0-1.768-2.362-5.706-5.25-8.751-22.66-23.899-30.75-33.271-30.75-35.627 0-1.503-4.387-6.693-9.75-11.534-13.67-12.341-51.54-88.754-49-98.872 2.099-8.364 9.259-9.641 18.349-3.273 3.264 2.286 10.652 5.578 16.418 7.316 16.47 4.965 32.797 11.282 55.013 21.284 11.291 5.084 22.476 9.243 24.855 9.243 2.379 0 7.656 2.182 11.726 4.849 4.438 2.907 10.099 4.094 14.144 2.964 3.71-1.036 15.183.478 25.495 3.364l18.75 5.248v28.194c0 25.748.612 28.76 7.058 34.734 5.565 5.157 7.495 10.976 9.123 27.503 1.211 12.286 4.498 24.962 7.942 30.626 3.233 5.315 5.877 12.251 5.877 15.413 0 3.163 1.35 6.585 3 7.605 5.596 3.458.715-31.351-6.199-44.209-1.541-2.865-2.801-11.911-2.801-20.101 0-10.792-1.379-15.664-5.01-17.696-7.215-4.037-10.751-37.2-5.57-52.239 3.613-10.486 3.451-11.648-2.04-14.587-12.059-6.454-39.596-14.668-49.173-14.668-5.419 0-10.639-1.272-11.6-2.827-.961-1.554-8.128-3.75-15.927-4.879-7.799-1.128-22.244-6.012-32.099-10.852-9.856-4.841-22.134-9.133-27.286-9.538-5.151-.406-13.132-3.7-17.735-7.321-4.603-3.621-10.878-6.583-13.944-6.583-3.066 0-10.908-2.31-17.426-5.134-12.506-5.418-16.034-11.196-25.746-42.156-5.425-17.295-11.16-24.761-18.908-24.615-2.77.052-19.211 2.141-36.536 4.641-17.325 2.501-40.95 5.734-52.5 7.185-11.55 1.451-29.099 4.071-38.999 5.823-9.899 1.752-20.064 2.529-22.589 1.728-6.482-2.057-12.81-18.131-14.754-37.472-1.413-14.059-2.627-16.638-8.21-17.433-17.874-2.544-8.218-47.974 10.302-48.467 2.063-.055 3.75-2.125 3.75-4.6 0-2.677 2.756-4.5 6.804-4.5 3.742 0 11.77-3.375 17.84-7.5 6.071-4.125 12.459-7.5 14.197-7.5 1.737 0 3.159-1.35 3.159-3s1.77-3 3.934-3 6.833-2.7 10.375-6c7.185-6.694 14.259-7.745 17.444-2.59 1.452 2.348 9.674 2.831 26.427 1.553 35.851-2.736 43.548-.703 54.902 14.505 5.685 7.614 15.446 15.665 24 19.794 7.93 3.828 20.493 12.449 27.918 19.157 22.873 20.665 34.881 25.581 62.481 25.581 13.291 0 24.999-1.35 26.019-3 1.02-1.65 1.437-3.076.927-3.169-.51-.094-12.402-.856-26.427-1.694-14.025-.839-26.82-2.825-28.433-4.414-4.99-4.915 2.346-12.662 21.184-22.368 9.762-5.03 26.524-15.115 37.249-22.411 18.013-12.255 20.872-13.238 37.5-12.892 38.217.793 66.455 7.974 105 26.699 12.325 5.988 59.892 19.249 69.045 19.249 11.462 0 8.836-5.085-3.795-7.347-23.171-4.151-72.153-20.958-94.557-32.446-9.519-4.881-25.044-10.013-34.5-11.404s-24.786-4.136-34.065-6.099c-15.805-3.344-17.642-3.116-29.024 3.613-6.683 3.951-21.366 12.463-32.628 18.916-11.262 6.454-27.928 16.241-37.035 21.75-18.624 11.266-26.83 12.424-33.768 4.767-2.616-2.887-11.938-9.169-20.715-13.959-8.777-4.791-20.683-14.573-26.458-21.739-15.988-19.839-22.969-22.563-57.498-22.441-38.058.136-43.159-2.106-45.927-20.181-8.159-53.289-2.025-123.798 11.989-137.812 4.157-4.157 8.427-11.059 9.489-15.338 2.677-10.783 13.662-27.198 18.231-27.243 2.082-.02 7.836-8.882 12.787-19.692 4.951-10.81 10.197-18.916 11.657-18.013 1.461.903-.499 13.752-4.356 28.554-4.815 18.482-6.258 29.537-4.608 35.291 3.873 13.506 16.812 37.099 29.859 54.447 6.669 8.868 12.673 17.643 13.341 19.5.668 1.857 2.16 2.503 3.315 1.436 2.163-1.998-18.845-46.139-28.395-59.661-9.419-13.336-9.998-26.558-2.115-48.275 5.522-15.212 6.876-23.913 5.875-37.752-1.526-21.092 1.176-27.391 20.536-47.888 7.524-7.966 14.503-16.673 15.508-19.348 1.005-2.675 5.592-5.809 10.192-6.963 4.601-1.155 13.414-6.391 19.584-11.636 18.15-15.429 28.77-23.037 32.155-23.037 1.743 0 4.615-2.7 6.381-6s5.023-6 7.238-6c2.215 0 5.708-2.025 7.762-4.5 2.054-2.475 8.218-4.5 13.698-4.5 7.889 0 11.07 1.874 15.281 9.004 2.926 4.952 7.483 9.69 10.127 10.53 8.391 2.663 43.957 39.29 55.165 56.81 5.934 9.277 12.596 17.561 14.803 18.408 2.207.847 6.979 5.551 10.604 10.454 6.472 8.754 6.501 9.224 1.606 26.104-2.742 9.455-7.527 22.38-10.635 28.724-3.107 6.343-5.649 13.847-5.649 16.675 0 9.316 18.121 55.018 33.37 84.16 15.622 29.856 21.822 38.483 24.52 34.118 1.477-2.39-9.28-29.592-15.813-39.987-7.111-11.314-18.356-36.721-16.898-38.179.891-.891 6.408 2.585 12.26 7.723 5.852 5.138 16.962 12.222 24.688 15.742 13.355 6.083 21.903 14.048 30.017 27.964 3.252 5.579 3.655 5.664 3.75.784.058-3.006-3.234-11.164-7.315-18.129-5.963-10.175-10.485-13.765-23.015-18.27-9.27-3.334-19.559-9.972-25.374-16.371-33.224-36.565-31.544-31.595-20.95-61.991 13.516-38.781 13.454-39.497-5.265-60.475-9.052-10.146-17.302-21.101-18.331-24.345-1.03-3.244-3.846-6.656-6.258-7.582-2.412-.925-4.386-3.2-4.386-5.055 0-1.854-9.112-12.003-20.25-22.552-35.964-34.064-45.75-44.447-45.75-48.544 0-4.545 8.695-22.433 12.016-24.72 3.536-2.435 14.984-26.366 14.984-31.323 0-2.51 3.375-5.41 7.5-6.445 4.125-1.035 7.5-3.269 7.5-4.963 0-1.695 3.375-6.209 7.5-10.032 4.125-3.823 7.5-8.252 7.5-9.844 0-1.591 1.036-3.343 2.301-3.893 1.266-.55 7.679-7.75 14.25-16 6.572-8.25 12.773-15.675 13.78-16.5 1.008-.825 4.334-6.225 7.391-12 4.097-7.736 5.543-16.817 5.497-34.5-.073-27.791-1.916-46.467-4.586-46.487-4.174-.03-5.549-25.559-2.238-41.587 3.506-16.975 3.447-17.26-6.679-32.613-5.619-8.519-12.09-15.561-14.38-15.651-3.357-.131-3.781-4.668-2.188-23.412 3.011-35.431 5.265-48.75 8.252-48.75 1.496 0 8.066-3.375 14.6-7.5 15.933-10.058 29.325-9.805 39.695.75 7.782 7.921 32.824 34.607 40.488 43.146 2.026 2.257 16.362 15.579 31.859 29.604 15.497 14.025 29.009 28.2 30.026 31.5 1.018 3.3 1.869 14.228 1.891 24.285.033 14.509-1.198 19.406-5.959 23.715-4.711 4.263-6 9.24-6 23.162 0 9.753-1.19 20.006-2.646 22.785-1.596 3.05-1.392 8.027.516 12.553 1.738 4.125 3.441 27.905 3.784 52.844l.623 45.344-9.156 10.156c-17.9 19.853-19.496 22.274-21.531 32.656l-2.057 10.5 5.484-9.728c8.161-14.478 25.729-33.772 30.751-33.772 4.575 0 21.232 14.42 21.232 18.381 0 8.053-28.848 62.339-36.596 68.865-8.919 7.513-9.259 8.731-11.287 40.5-2.351 36.819-.712 66.57 3.125 56.74 1.285-3.292 2.431-17.979 2.547-32.638.233-29.4 4.608-48.245 13.195-56.832 3.096-3.096 8.936-13.253 12.98-22.572 17.075-39.354 19.694-43.018 29.387-41.103 4.868.962 9.91 3.417 11.204 5.454 4.171 6.566 2.599 30.552-3.201 48.872-8.275 26.133-11.856 40.347-13.562 53.833-2.547 20.136 5.437 5.289 11.665-21.692 2.959-12.819 8.013-28.708 11.231-35.308 4.122-8.455 5.738-17.645 5.47-31.107-.234-11.75 1.212-21.568 3.755-25.5 2.274-3.516 4.904-11.236 5.843-17.155 1.455-9.166.413-11.986-7.024-19.005-11.15-10.524-11.341-21.648-.868-50.539 4.325-11.932 9.724-28.397 11.997-36.589 5.02-18.084 3.825-19.729-21.467-29.555l-17.894-6.951.327-14.8c.181-8.139 3.755-29.649 7.943-47.799 4.189-18.15 9.119-42.013 10.956-53.028 3.161-18.946 2.934-20.794-4.192-34.197-4.144-7.793-7.534-16.392-7.534-19.11 0-2.717 5.769-14.329 12.819-25.803 7.051-11.474 16.587-28.962 21.192-38.862 4.604-9.9 9.635-20.344 11.18-23.209 5.636-10.452 2.892-16.227-12.422-26.15l-15.232-9.87 2.046-14.873c4.116-29.929 6.328-102.825 3.244-106.93-1.666-2.217-11.871-8.08-22.678-13.027-19.229-8.804-19.822-9.424-27.734-28.969-7.026-17.355-7.725-21.845-5.333-34.265 3.028-15.72 5.339-20.872 18.818-41.957 5.011-7.837 10.908-14.25 13.105-14.25 2.197 0 3.995-1.35 3.995-3 0-6.749 11.025-2.089 18.556 7.843 7.401 9.762 7.922 12.252 6.41 30.641-1.519 18.476-.7 22.313 10.639 49.882 6.757 16.426 15.609 32.949 19.673 36.716 4.063 3.768 11.733 13.278 17.044 21.134s11.799 16.444 14.417 19.084c12.964 13.07 24.261 26.862 24.261 29.62 0 1.694 1.206 3.08 2.679 3.08 1.474 0 3.433 1.965 4.355 4.367 2.259 5.886-3.151 39.426-8.621 53.444-2.427 6.221-4.413 13.499-4.413 16.174 0 5.182 58.94 64.603 68.076 68.632 2.983 1.315 11.654 2.054 19.268 1.641l13.844-.75 1.842 26.496a21462.87 21462.87 0 0 1 3.931 57.996c1.213 18.29 2.869 28.355 3.949 24 1.184-4.772 3.97-7.5 7.661-7.5 4.609 0 6.514 3.389 9.278 16.5 1.913 9.075 3.766 13.8 4.118 10.5 1.628-15.249-1.154-27.027-9.099-38.522-8.36-12.094-8.653-13.77-9.497-54.478l-.871-42 24-1.5c29.373-1.836 19.138-5.469-18.364-6.519-19.561-.547-25.369.324-29.464 4.419-2.805 2.805-6.78 5.1-8.833 5.1-2.052 0-17.481-13.323-34.285-29.607L1806 2634.785v-15.392c0-8.466 1.35-15.393 3-15.393s3.008-3.712 3.017-8.25c.009-4.537 1.465-13.466 3.235-19.841 2.913-10.492 2.525-12.34-4.097-19.5-29.516-31.915-72.471-89.783-80.992-109.113-8.847-20.066-9.563-24.072-9.025-50.469l.586-28.674-14.862-14.198c-8.174-7.81-14.862-16.025-14.862-18.256 0-5.91-6.952-7.699-29.924-7.699-16.352 0-20.82-1.005-22.364-5.029-1.061-2.766-3.182-35.603-4.712-72.971-1.53-37.368-3.6-70.072-4.599-72.676-5.295-13.798-1.973-94.354 4.724-114.548 1.591-4.798 5.589-10.612 8.884-12.92s5.991-5.507 5.991-7.108c0-1.602 6.157-8.646 13.682-15.655 12.473-11.618 13.412-13.454 10.626-20.784-1.682-4.422-2.253-14.826-1.271-23.121 1.015-8.573.474-16.723-1.255-18.885-1.673-2.092-3.965-11.903-5.094-21.803-1.128-9.9-4.124-26.505-6.658-36.899-9.882-40.547 4.75-44.86 31.97-9.422 8.695 11.32 24 38.478 24 42.587 0 1.544 2.59 6.445 5.756 10.891 3.166 4.446 8.668 16.805 12.228 27.464 3.559 10.658 8.974 24.779 12.032 31.379 3.059 6.6 9.071 19.763 13.36 29.25 4.29 9.488 8.254 17.25 8.809 17.25 2.041 0-3.606-22.834-8.323-33.654-9.656-22.149-4.717-32.093 10.994-22.134 3.654 2.316 12.447 5.146 19.54 6.288 14.503 2.335 26.325 12.849 29.208 25.974 1.859 8.463 26.258 55.588 31.489 60.819 1.876 1.876 2.907.986 2.907-2.507 0-4.703-5.617-17.532-17.2-39.286-1.757-3.3-6.369-12.52-10.248-20.49-9.694-19.918-18.685-28.167-33.411-30.655-15.495-2.618-28.47-10.795-49.324-31.084-6.7-6.519-19.78-27.724-23.47-38.05-1.824-5.104-10.636-20.893-19.582-35.086-11.508-18.259-20.102-28.243-29.384-34.139-15.718-9.983-19.636-15.757-24.09-35.496-2.69-11.92-2.439-20.543 1.221-42 6.519-38.209 13.476-104.377 13.482-128.235.006-20.212.023-20.252 14.872-35.417 10.09-10.304 18.065-15.701 24.825-16.798 9.176-1.489 11.657.085 31.567 20.035 15.789 15.82 22.141 24.493 23.588 32.203 1.089 5.804 5.152 16.101 9.031 22.882 3.878 6.782 7.067 14.457 7.087 17.057.06 7.835 12.779 17.331 31.68 23.653 9.821 3.285 20.219 6.006 23.106 6.046 4.071.057 5.25 2.648 5.25 11.529 0 6.301 1.892 18.114 4.205 26.25 2.313 8.137 5.099 19.993 6.192 26.347 2.546 14.796 10.703 31.948 15.194 31.948 1.913 0 5.991 2.776 9.061 6.168 4.597 5.08 4.944 7.189 1.965 11.959-1.989 3.185-3.617 10.415-3.617 16.065 0 10.495-10.295 41.697-16.434 49.808-1.873 2.475-5.04 7.875-7.037 12-1.998 4.125-7.678 12.9-12.623 19.5-4.945 6.6-10.402 14.424-12.127 17.387-2.744 4.712-2.456 4.953 2.292 1.925 6.047-3.857 27.315-29.935 33.275-40.8 5.77-10.52 11.849-8.658 14.038 4.299 1.051 6.222 3.174 13.309 4.717 15.75 3.556 5.624 3.59-7.18.076-28.561-1.356-8.25-1.246-24.45.244-36 4.496-34.837 4.336-34.5 16.348-34.5 8.071 0 14.13 2.931 24.988 12.086 13.889 11.711 14.532 12.989 20.755 41.25 3.533 16.04 7.97 38.614 9.86 50.164 1.89 11.55 5.28 23.663 7.533 26.918 2.252 3.254 4.095 8.269 4.095 11.143 0 2.874 3.375 11.271 7.5 18.66 4.125 7.388 7.5 15.484 7.5 17.991 0 2.506 9.504 15.072 21.121 27.923l21.121 23.365-1.5 33c-.825 18.15-2.782 43.092-4.348 55.427-3.075 24.215-1 32.164 11.299 43.295 3.469 3.139 6.307 7.199 6.307 9.021 0 1.823 2.879 5.112 6.399 7.31 5.704 3.562 6.205 5.844 4.619 21.019-.978 9.362-4.62 26.219-8.092 37.46-5.756 18.639-6.018 22.852-2.976 47.874 1.873 15.402 5.247 29.55 7.693 32.252 2.396 2.648 4.357 6.396 4.357 8.328 0 1.933 1.35 3.514 3 3.514s3 1.479 3 3.287c0 1.808 2.912 7.377 6.471 12.375 12.351 17.344 12.102 37.144-1.336 106.588-2.315 11.963-3.765 21.75-3.223 21.75 3.572 0 15.728-31.373 17.436-45 1.137-9.075 3.346-20.638 4.909-25.696 4.684-15.153 4.919-49.311.34-49.307-2.147.001-6.005-5.059-8.573-11.247-2.568-6.187-6.491-12.297-8.718-13.577-4.031-2.317-9.606-19.19-16.424-49.707-3.181-14.239-2.815-18.89 3.272-41.538 7.015-26.105 13.162-33.694 19.154-23.648 5.039 8.448 32.508 44.902 36.336 48.22 1.903 1.65 7.293 8.4 11.976 15 4.684 6.6 12.92 16.725 18.302 22.5 5.382 5.775 11.919 15.621 14.526 21.881 5.51 13.223 12.804 17.304 18.067 10.106 2.005-2.743 5.603-4.987 7.995-4.987 2.392 0 16.134 12.321 30.539 27.381 14.404 15.059 26.987 26.583 27.961 25.609 2.287-2.287-10.034-16.258-37.38-42.386-19.414-18.55-22.527-20.487-27.71-17.25-8.773 5.479-11.292 4.563-16.799-6.104-2.768-5.362-9.523-15.15-15.012-21.75-32.916-39.579-43.656-53.562-61.859-80.535-11.137-16.504-20.25-30.865-20.25-31.915 0-1.05-6.075-9.026-13.5-17.724-15.57-18.241-15.448-17.258-10.067-81.489 1.888-22.537 2.586-44.354 1.55-48.481-1.036-4.127-10.562-16.269-21.169-26.981-17.157-17.326-20.604-22.92-31.226-50.676-6.567-17.159-14.115-40.649-16.773-52.199a8286.062 8286.062 0 0 0-9.324-39.992c-6.02-25.457-5.662-35.167 1.662-45.073l6.152-8.322-7.187-19.8c-3.953-10.891-12.084-26.616-18.068-34.946-13.261-18.459-16.089-27.94-9.87-33.101 3.075-2.552 3.995-6.642 2.818-12.528-.962-4.806-.612-8.738.777-8.738 4.323 0 29.424 9.892 35.643 14.047 3.254 2.174 7.721 3.953 9.927 3.953 8.591 0-.985-6.808-25.52-18.143-37.264-17.216-61.139-23.109-69.037-17.038-2.041 1.569-5.925 2.003-8.63.965-2.705-1.038-6.563-.523-8.572 1.145-4.399 3.65-50.71-4.789-60.413-11.009-9.9-6.346-28.993-47.358-26.766-57.494 1.611-7.338-.68-10.92-18.636-29.146-11.259-11.429-25.827-25.064-32.371-30.299l-11.9-9.519 5.062-8.626c4.8-8.179 4.776-8.806-.45-12.07-3.032-1.893-9.146-10.869-13.587-19.946-4.441-9.077-9.023-16.912-10.183-17.412-5.45-2.346-21.853-40.414-23.42-54.351-.962-8.556-2.992-17.978-4.51-20.936-1.519-2.959-4.616-14.434-6.883-25.5-11.008-53.732-16.871-78.695-22.526-95.91-5.022-15.287-5.509-20.029-2.612-25.442 1.958-3.659 4.047-12.078 4.641-18.711.594-6.632 2.405-12.508 4.024-13.058 1.619-.55 2.944-3.63 2.944-6.844 0-7.738 8.228-10.591 16.147-5.597 3.494 2.203 9.072 5.453 12.395 7.223 3.323 1.77 10.123 6.142 15.111 9.717 4.987 3.574 16.755 9.201 26.151 12.503 9.396 3.303 22.847 10.711 29.89 16.463 16.834 13.749 36.448 23.956 61.448 31.976 21.172 6.793 36.858 18.441 36.858 27.37 0 2.854 1.029 5.639 2.288 6.189 3.442 1.504 24.712 32.066 24.712 35.507 0 1.646 1.243 2.993 2.762 2.993 5.511 0 6.609 18.571 3.106 52.544-3.854 37.38-1.4 113.704 3.411 106.107 1.446-2.283 2.65-11.337 2.675-20.121.064-22.282 6.011-20.019 26.193 9.97 19.023 28.266 22.276 32.83 39.103 54.858 7.013 9.18 12.75 18.03 12.75 19.666 0 1.637.775 2.201 1.721 1.255 2.214-2.214-5.642-17.396-19.807-38.279-6.155-9.075-18.283-27.3-26.95-40.5-8.667-13.2-19.223-27.729-23.457-32.286-9.568-10.298-13.056-34.844-8.628-60.714 1.695-9.9 2.863-22.429 2.596-27.842-.309-6.253 1.126-10.461 3.935-11.539 5.748-2.205 22.59 5.264 22.59 10.019 0 2.021 1.949 2.926 4.331 2.012 2.382-.914 15.6 3.178 29.373 9.094 13.774 5.916 26.074 10.756 27.334 10.756 1.26 0 7.955 2.534 14.877 5.63 6.922 3.097 18.66 8.261 26.085 11.476 41.681 18.049 39 16.123 39 28.006 0 7.148-2.086 12.846-6 16.388-6.646 6.014-7.41 14.871-3.152 36.521a37702.17 37702.17 0 0 1 6.262 31.94c2.581 13.198 5.64 19.423 12.53 25.5 5.014 4.421 12.309 12.764 16.21 18.539 3.902 5.775 9.881 13.958 13.286 18.185 3.928 4.875 8.779 20.235 13.266 42 16.315 79.14 13.77 73.648 52.598 113.541 18.975 19.495 39.757 39.448 46.181 44.338 10.396 7.914 11.966 10.849 14.266 26.664 1.421 9.775 1.899 27.222 1.063 38.772-.836 11.55-2.182 38.55-2.991 60-.81 21.45-2.173 53.175-3.029 70.5-1.554 31.429-1.547 31.466 2.844 16.5 2.421-8.25 4.461-18.712 4.534-23.25.186-11.604 6.921-10.442 17.388 3 23.532 30.221 24.263 34.376 15.861 90.181-3.959 26.296-2.832 32.371 4.238 22.85 6.5-8.752 15.278-2.134 14.711 11.09-2.545 59.397-1.389 86.677 2.081 49.129 1.22-13.2 3.219-31.044 4.442-39.654 1.946-13.699 1.187-17.703-6.085-32.076-7.746-15.309-8.169-18.032-6.236-40.183 2.03-23.271 1.854-24.158-8.49-42.977-5.809-10.569-16.784-26.505-24.389-35.414-10.218-11.971-13.351-17.829-12.003-22.447 1.002-3.437 2.656-32.236 3.674-63.999 1.018-31.762 3.044-57.75 4.501-57.75 1.458 0 6.252 2.36 10.654 5.244l8.003 5.244-5.363-8.994c-2.95-4.947-14.869-17.769-26.486-28.494-22.722-20.976-50.061-48.052-70.771-70.091-10.693-11.378-13.381-16.698-15.696-31.069-1.536-9.537-5.536-27.465-8.889-39.84-5.596-20.655-10.885-43.307-13.685-58.601-.614-3.355-10.69-16.18-22.391-28.5-23.814-25.073-27.619-32.125-32.518-60.259-4.587-26.339-4.306-37.169 1.081-41.64 2.584-2.145 4.5-8.687 4.5-15.367 0-8.893 1.187-11.633 5.039-11.633 6.744 0 39.961 15.816 39.961 19.027 0 1.396 5.991 10.415 13.313 20.043 7.323 9.629 15.294 21.314 17.714 25.968 2.42 4.654 7.225 11.701 10.678 15.66 6.91 7.926 24.516 61.139 31.805 96.133 5.015 24.076 9.192 33.299 6.19 13.669-11.027-72.107-18.043-93.555-42.1-128.693-7.48-10.926-13.6-21.877-13.6-24.336 0-5.889 7.23-5.719 12.214.287 2.172 2.617 9.883 7.547 17.137 10.957 7.253 3.41 14.014 8.356 15.024 10.992 5.909 15.427 60.625 85.814 60.625 77.989 0-3.422-22.308-39.577-32.205-52.196-15.72-20.043-27.795-37.729-27.795-40.71 0-2.03 4.695-2.454 13.145-1.186 7.524 1.128 13.913.729 14.941-.934 2.081-3.368-14.038-6.484-35.586-6.879-9.521-.174-19.104-2.652-26.237-6.783-6.18-3.579-25.324-14.818-42.542-24.974s-35.786-19.422-41.263-20.59c-5.477-1.169-16.838-5.346-25.247-9.284-8.41-3.938-17.078-7.16-19.264-7.16s-6.106-1.809-8.711-4.02c-2.605-2.212-13.132-7.086-23.394-10.832-10.261-3.746-20.214-8.686-22.117-10.979-1.903-2.293-5.389-4.169-7.748-4.169s-9.281-2.596-15.383-5.769c-6.102-3.172-19.531-8.235-29.844-11.249-10.312-3.014-18.75-6.239-18.75-7.166 0-.926-2.668-4.548-5.929-8.048s-12.67-16.918-20.91-29.816c-22.16-34.691-23.269-36.054-30.766-37.835-25.011-5.939-43.584-12.404-49.892-17.365-4.022-3.164-9.052-5.752-11.178-5.752-2.126 0-9.765-4.503-16.975-10.007-7.21-5.503-26.213-16.423-42.23-24.266-16.016-7.843-30.133-15.93-31.37-17.97-1.238-2.04-4.381-4.489-6.985-5.441-5.345-1.956-29.765-41.518-29.765-48.223 0-2.397-2.025-6.039-4.5-8.093-8.202-6.807-5.018-17.345 10.64-35.218 8.327-9.505 16.553-19.047 18.279-21.204 1.727-2.157 6.051-3.507 9.61-3 6.122.872 10.076 7.014 33.426 51.922 2.574 4.95 7.372 12.375 10.662 16.5l5.982 7.5-3.049-8.445c-4.78-13.236-3.798-17.055 4.384-17.055 5.518 0 11.767 5.22 24.243 20.25 9.244 11.138 19.493 25.443 22.775 31.791 3.282 6.347 6.585 10.922 7.341 10.166 6.643-6.643-43.866-74.072-55.652-74.295-10.477-.198-30.654-24.923-43.997-53.912-6.251-13.582-17.01-26.509-53.213-63.933l-29.568-30.567 1.534-23.24c1.233-18.669.35-26.339-4.486-39-3.312-8.668-7.152-23.667-8.534-33.331-2.194-15.345-1.775-18.363 3.305-23.816 3.2-3.434 5.818-7.367 5.818-8.739 0-4.974 55.502-59.374 60.576-59.374 2.867 0 6.632-2.652 8.367-5.894 1.735-3.242 8.533-7.506 15.106-9.475 6.573-1.969 11.951-4.811 11.951-6.315 0-1.503 2.988-2.302 6.639-1.775 4.811.695 7.2 3.72 8.678 10.987 1.121 5.515 3.534 11.523 5.361 13.35s3.322 5.855 3.322 8.952c0 7.125 20.716 55.64 24.849 58.195 2.007 1.24 2.425-1.407 1.194-7.56-2.767-13.836 2.153-24.465 11.326-24.465 5.779 0 7.919 1.907 9.255 8.25.956 4.538 4.873 17.025 8.703 27.75 8.033 22.489 16.377 52.57 25.707 92.684 3.606 15.501 9.007 32.547 12.002 37.88 2.995 5.333 7.502 17.625 10.016 27.316 18.864 72.736 18.665 70.856 11.316 106.919-6.444 31.62-6.8 28.121 7.257 71.201 2.422 7.425 4.398 16.313 4.39 19.75-.008 3.438.998 7.26 2.235 8.496 1.238 1.235 3.796 7.197 5.685 13.25 2.866 9.179 3.484 9.76 3.727 3.504.278-7.17-5.279-31.649-16.005-70.493-2.732-9.897-4.145-20.697-3.139-24 1.006-3.304 3.574-17.899 5.708-32.433l3.88-26.426-11.722-45.155c-6.447-24.835-11.014-45.863-10.149-46.728 3.025-3.025 19.582 5.931 21.367 11.558.991 3.122 3.19 5.677 4.887 5.677 1.697 0 7.083 2.847 11.971 6.327 4.887 3.48 9.475 5.738 10.195 5.018 1.795-1.795-33.228-32.4-48.904-42.735-9.28-6.119-13.506-11.358-15.534-19.258-1.532-5.969-6.891-27.727-11.908-48.352-12.46-51.224-26.537-98.955-30.642-103.902-4.486-5.404-10.598-5.212-12.752.402-4.328 11.28-17.147 1.174-30.441-24-5.505-10.424-10.078-29.612-9.669-40.566.454-12.142-11.557-29.719-44.027-64.434-16.66-17.812-19.653-22.656-19.71-31.905-.052-8.324 1.682-12.052 7.326-15.75 4.067-2.665 9.907-4.845 12.978-4.845 7.809 0 18.628-12.417 18.628-21.38 0-9.855 11.024-32.434 16.945-34.706 5.829-2.237 9.193 3.057 11.771 18.525 3.058 18.35 14.918 39.253 27.49 48.454 6.212 4.545 12.644 9.697 14.294 11.448 5.709 6.057 33.101 28.021 57.498 46.103 46.574 34.519 58.011 46.027 63.462 63.856 2.178 7.123 6.413 18.407 9.41 25.075 2.998 6.669 6.434 16.85 7.637 22.625 1.202 5.775 3.458 12.083 5.014 14.017 2.475 3.079 10.874 24.756 25.37 65.483 2.349 6.6 5.511 14.7 7.026 18 1.516 3.3 5.642 12.75 9.171 21 3.528 8.25 11.13 25.125 16.893 37.5s11.689 25.2 13.169 28.5c1.48 3.3 7.473 20.111 13.318 37.358 10.317 30.442 13.517 49.324 22.643 133.642 1.786 16.5 3.88 35.442 4.654 42.093.773 6.652 6.094 19.477 11.825 28.5 5.73 9.024 14.668 25.52 19.861 36.657 5.193 11.138 10.736 20.25 12.317 20.25 1.581 0 2.052-2.143 1.046-4.762-1.005-2.62-2.672-10.045-3.704-16.5-1.47-9.192-.917-11.738 2.546-11.738 7.147 0 25.091 19.429 33.803 36.598 4.437 8.746 11.373 19.952 15.412 24.902l7.345 9-3.309-9c-7.461-20.294-28.681-56.017-36.14-60.839-17.068-11.035-44.767-34.812-44.767-38.428 0-2.092-2.147-5.951-4.77-8.575-3.131-3.131-5.269-12.225-6.222-26.464-.799-11.932-2.449-26.419-3.667-32.194-1.218-5.775-2.067-21.294-1.886-34.486.38-27.638 4.654-31.898 15.851-15.8 3.744 5.382 13.005 16.536 20.58 24.786l13.774 15-6.038-12c-3.321-6.6-9.676-15.375-14.122-19.5s-10.509-12.225-13.473-18c-2.964-5.775-8.39-13.2-12.058-16.5-6.057-5.449-20.969-34.516-20.969-40.873 0-4.335 10.987-2.963 15 1.873 2.054 2.475 5.257 4.536 7.117 4.58 1.861.044 8.951 5.107 15.756 11.25 6.804 6.144 15.242 13.156 18.75 15.582 3.507 2.427 6.377 5.479 6.377 6.783 0 6.387 14.811 32.504 29.222 51.53 13.744 18.145 54.003 62.667 90.219 99.772 5.468 5.602 12.009 15.207 14.536 21.344 2.527 6.138 6.463 15.209 8.746 20.159 2.283 4.95 10.976 29.925 19.317 55.5s18.309 51.225 22.151 57c9.212 13.847 30.285 36 34.246 36 6.533 0 12.26 9.599 15.664 26.252 1.939 9.486 7.256 27.373 11.817 39.748 4.56 12.375 11.469 32.963 15.352 45.75 3.884 12.788 7.977 23.25 9.096 23.25 1.12 0-.507-9.787-3.614-21.75-6.694-25.774-6.359-23.25-3.09-23.25 1.465 0 6.469 8.955 11.121 19.9 7.227 17.006 30.712 52.834 41.034 62.6 3.93 3.719-10.247-21.819-23.315-42-5.343-8.25-12.776-21.075-16.518-28.5-3.743-7.425-10.442-18.9-14.888-25.5-4.445-6.6-10.49-20.775-13.434-31.5-10.464-38.128-16.468-50.746-26.644-55.995-11.496-5.93-31.509-27.908-38.9-42.72-2.959-5.932-8.027-20.848-11.262-33.147-3.234-12.3-7.225-23.707-8.868-25.35-1.644-1.644-2.988-6.867-2.988-11.608 0-14.918 9.148-8.48 29.839 21 20.197 28.776 26.547 34.358 14.62 12.853-3.827-6.901-9.29-16.82-12.14-22.041-2.849-5.22-8.587-12.465-12.75-16.098-4.163-3.633-7.569-8.15-7.569-10.037 0-7.97-30.547-43.105-99.444-114.382-34.133-35.311-45.889-50.923-59.556-79.091-11.018-22.709-32.067-43.984-68.801-69.543-15.691-10.917-16.844-12.687-30.848-47.341-8.001-19.8-15.761-38.7-17.244-42-11.14-24.787-25.384-59.716-29.973-73.5-4.948-14.859-20.925-58.863-31.733-87.396-11.023-29.1-9.47-27.576-95.233-93.482-27.468-21.108-52.525-42.033-55.682-46.5-11.406-16.137-22.579-49.248-27.374-81.121-2.036-13.53-5.918-23.607-13.485-35.008-5.845-8.805-10.627-17.929-10.627-20.274 0-6.267 27.869-47.079 32.199-47.154 2.035-.036 7.28 7.023 11.656 15.685 4.375 8.663 10.135 18.631 12.8 22.153 2.665 3.521 6.87 9.389 9.345 13.038 2.475 3.65 6.257 8.869 8.405 11.598 7.498 9.524.436-9.149-8.538-22.578-4.609-6.897-14.043-24.296-20.966-38.666-11.492-23.855-12.307-27.07-9.368-36.961 1.77-5.959 4.005-17.064 4.966-24.679.961-7.615 3.674-16.39 6.029-19.5 4.812-6.356 5.902-20.917 1.757-23.479-1.493-.922-6.132 4.154-10.308 11.281m-100.52 666.467c17.295 14.553 42.274 46.343 40.352 51.353-2.009 5.235-10.032 16.218-24.567 33.631-5.093 6.101-11.721 15.353-14.731 20.561-6.208 10.742-5.317 14.441 11.619 48.217 10.499 20.94 11.286 13.782-6.632 60.309-3.388 8.798-9.949 20.882-14.579 26.855-8.695 11.217-22.391 34.113-34.483 57.65-3.815 7.425-8.623 15.284-10.686 17.464-4.51 4.768-4.885 9.536-.75 9.536 1.65 0 3-1.816 3-4.035 0-2.219 2.7-6.479 6-9.465 3.3-2.986 6-7.142 6-9.235 0-2.092 3.19-7.621 7.09-12.285 3.899-4.664 7.983-11.339 9.076-14.834 1.093-3.495 4.653-8.767 7.911-11.715 3.257-2.949 5.923-7.177 5.923-9.396 0-2.219 2.178-4.035 4.84-4.035 3.668 0 4.522 2.172 3.525 8.964-.968 6.597.045 9.397 3.834 10.599 2.832.899 5.816 5.302 6.632 9.786 2.213 12.168 16.392 82.918 21.773 108.651 2.589 12.375 5.875 25.2 7.304 28.5 1.428 3.3 3.983 10.372 5.676 15.715 1.694 5.343 7.043 15.476 11.888 22.518 17.992 26.15 27.934 47.589 26.049 56.172-1.077 4.904-9.651 15.25-21.407 25.829-21.324 19.189-29.403 33.567-26.441 47.055 1.034 4.708.92 22.657-.255 39.886-1.902 27.905-2.751 31.325-7.776 31.325-3.182 0-5.642-2.102-5.642-4.82 0-2.651-2.197-16.826-4.881-31.5-3.83-20.934-5.957-26.68-9.876-26.68-2.746 0-10.562-5.737-17.368-12.75-12.871-13.261-12.817-13.077-16.654-57-.397-4.537-1.643-8.25-2.769-8.25-1.126 0-2.894-2.667-3.929-5.926-1.329-4.19-7.857-7.706-22.275-12-11.217-3.341-23.661-6.074-27.654-6.074-3.992 0-10.167-2.037-13.721-4.527-7.882-5.52-24.873-34.521-24.873-42.454 0-3.163-2.622-10.893-5.826-17.178-3.204-6.285-6.666-15.254-7.694-19.93-1.737-7.911-11.201-17.626-39.176-40.22-9.794-7.91-10.731-9.898-9.177-19.477.953-5.867 2.97-11.08 4.484-11.584 1.514-.505 2.108-3.379 1.321-6.388-.851-3.257 1.56-8.462 5.959-12.861 4.065-4.064 8.367-10.65 9.562-14.635 1.194-3.985 4.142-10.366 6.549-14.18 2.763-4.377 4.925-18.208 5.862-37.5.817-16.811 2.687-30.993 4.156-31.514 1.486-.528 1.279-4.004-.467-7.835-3.875-8.504 3.913-25.616 12.704-27.915 3.159-.826 5.756-2.357 5.771-3.402.016-1.045 6.091-4.565 13.5-7.822 7.41-3.258 13.472-7.014 13.472-8.347 0-2.444 36.173-20.231 41.143-20.231 1.47 0 10.903-8.775 20.963-19.5 10.059-10.725 19.855-19.5 21.769-19.5 1.913 0 2.673-1.304 1.688-2.897-.984-1.594.183-10.031 2.594-18.75 6.695-24.209 8.495-47.757 4.78-62.529a3637.938 3637.938 0 0 1-4.994-20.074c-2.181-8.961 3.37-8.703 14.514.674m282.129 669.637c6.809 6.524 8.415 10.672 8.419 21.75.004 13.578 1.339 16.879 20.333 50.279 24.657 43.359 17.565 59.064-14.554 32.229-9.043-7.555-15.289-10.341-23.318-10.4-23.028-.169-39.542-28.066-44.459-75.103-1.709-16.35-1.533-16.865 6.87-20.158 21.71-8.507 36.839-8.052 46.709 1.403M463.5 1848c-4.95 3.278-7.944 5.969-6.654 5.98 3.902.033 23.154-8.554 23.154-10.327 0-3.453-7.842-1.387-16.5 4.347m667.117 23.25c-3.731 4.758-3.625 4.864 1.133 1.133 4.997-3.919 6.586-6.383 4.117-6.383-.623 0-2.985 2.363-5.25 5.25m485.072 66c-1.107 4.538-3.032 13.705-4.279 20.373-3.606 19.273-23.135 47.463-49.284 71.142-38.015 34.422-33.662 29.559-85.911 95.985-10.058 12.788-19.452 23.25-20.876 23.25-1.424 0-3.332 3.713-4.239 8.25-.908 4.538-4.972 13.145-9.032 19.128l-7.382 10.878 5.492 37.122 5.493 37.122-8.086 8.565c-4.447 4.711-16.185 14.097-26.085 20.857-16.076 10.979-42.52 30.403-46.5 34.157-.825.778-2.23 13.116-3.123 27.418-1.566 25.096-2.168 26.851-17.25 50.303-8.595 13.364-15.645 25.514-15.666 27-.022 1.485-6.772 12.755-15 25.044-8.229 12.289-14.961 23.483-14.961 24.875 0 1.393-2.781 5.513-6.179 9.156-6.805 7.296-41.821 73.224-41.821 78.74 0 1.901-2.7 5.899-6 8.885-3.3 2.986-6 6.614-6 8.061 0 1.448-2.183 7.651-4.85 13.785-2.771 6.373-4.613 17.776-4.297 26.601.305 8.496-.888 16.338-2.65 17.427-1.761 1.089-3.203 4.975-3.203 8.636 0 3.66-1.833 9.318-4.073 12.572-2.24 3.255-5.803 11.318-7.917 17.918-3.321 10.371-12.625 26.758-17.885 31.5-.915.825-6.38 8.089-12.144 16.143-16.942 23.67-53.05 56.742-70.481 64.554-4.95 2.219-12.724 5.978-17.276 8.353-11.873 6.198-37.081 10.607-56.224 9.835-9.075-.366-22.575-.886-30-1.156-39.559-1.438-37.317-.72-45.198-14.479-4.016-7.012-8.689-18.825-10.383-26.25l-3.082-13.5-18.315.496c-10.073.273-35.049 4.66-55.501 9.75-20.453 5.09-40.221 9.254-43.929 9.254-13.659 0-93.088-32.088-107.115-43.273l-8.146-6.496 4.848-28.365c5.115-29.931 8.119-34.764 23.571-37.927 4.538-.929 8.25-2.678 8.25-3.887 0-1.208 8.438-3.077 18.75-4.151 23.403-2.439 50.25-8.555 50.25-11.447 0-1.2 5.063-2.981 11.25-3.957 17.433-2.751 30.027-10.205 32.254-19.091 3.638-14.508 11.077-18.406 35.121-18.404 12.031.002 31.897 2.094 44.145 4.649 18.329 3.824 23.904 3.978 31.5.874 11.833-4.835 13.729-6.927 22.696-25.025 7.274-14.684 16.403-25.5 21.52-25.5 1.413 0 6.515-3.771 11.338-8.381 4.875-4.658 15.523-10.111 23.973-12.277 8.362-2.143 15.203-5.122 15.203-6.619 0-1.498 2.698-2.723 5.997-2.723 3.298 0 11.204-5.062 17.57-11.25 9.827-9.551 12.092-14.231 15.004-30.996 1.886-10.86 3.429-22.647 3.429-26.193 0-4.48 2.437-7.058 7.989-8.452 10.651-2.673 18.366-9.531 24.028-21.359 2.567-5.362 5.863-9.75 7.325-9.75 1.462 0 2.658-2.7 2.658-6s1.978-6 4.394-6c2.417 0 5.994-3.037 7.95-6.75 1.955-3.712 4.425-7.425 5.489-8.25 3.659-2.837 15.167-24.347 15.167-28.351 0-2.204 2.025-4.784 4.5-5.734 2.475-.95 4.5-4.526 4.5-7.946 0-3.421 2.7-9.118 6-12.66s6-8.886 6-11.875c0-2.989 1.35-5.434 3-5.434s3-1.843 3-4.095c0-2.253 2.781-7.632 6.181-11.954 3.4-4.322 6.879-12.941 7.733-19.154.854-6.214 4.723-18.047 8.6-26.297 3.876-8.25 10.085-22.425 13.798-31.5 3.713-9.075 9.212-18.915 12.219-21.867 3.008-2.952 5.492-7.002 5.521-9 .028-1.998 3.403-6.812 7.5-10.698 4.096-3.886 7.448-8.334 7.448-9.886 0-3.821 13.955-17.549 17.838-17.549 1.711 0 4.797-2.7 6.858-6s4.785-6 6.053-6c1.268 0 6.544-4.05 11.723-9 5.18-4.95 10.568-9 11.973-9 1.405 0 2.555-2.151 2.555-4.781 0-2.629 2.7-5.487 6-6.35 3.3-.863 6-3.436 6-5.719 0-2.282 1.51-4.15 3.355-4.15s7.224-4.387 11.952-9.75c7.722-8.757 8.602-9.101 8.645-3.377.026 3.505-1.991 12.153-4.484 19.218-5.196 14.727-3.601 19.992 2.135 7.047 2.105-4.751 5.53-10.422 7.612-12.602 2.082-2.181 3.785-5.977 3.785-8.436 0-9.072 16.267-38.934 27.071-49.694 11.404-11.357 14.733-12.687 40.014-15.976l14.584-1.898-1.501-18.516c-.825-10.184-3.307-26.41-5.515-36.059-3.715-16.233-3.601-17.844 1.516-21.586 3.628-2.653 12.895-3.846 26.931-3.467 19.5.527 22.085-.119 29.123-7.272 6.082-6.183 10.786-7.911 22.148-8.139 7.934-.16 15.147-1.011 16.028-1.892.88-.88 15.033-1.601 31.451-1.601h29.849l-2.01 8.25m27.185 507c2.889 11.987 13.375 33.75 16.261 33.75 3.365 0 13.959 4.798 28.354 12.841l11.989 6.699-.851 32.98c-.468 18.139-2.263 42.902-3.989 55.028-4.025 28.273-2.295 34.49 11.593 41.67 14.979 7.745 15.691 16.27 3.506 41.952-5.305 11.181-10.569 21.005-11.697 21.83-1.129.825-6.204 9.126-11.279 18.447-5.074 9.321-11.634 20.622-14.577 25.114-5.04 7.693-5.053 8.384-.215 11.922 2.824 2.065 7.279 10.045 9.898 17.733 4.375 12.84 4.352 16.473-.29 44.631-2.78 16.859-8.406 42.422-12.502 56.807-4.097 14.385-7.027 31.057-6.512 37.048.995 11.563 5.136 14.181 36.187 22.877 12.679 3.551 14.399 9.813 6.732 24.514-2.465 4.726-4.482 11.059-4.482 14.073 0 3.014-1.135 6.182-2.523 7.039-4.262 2.634-13.243 40.335-11.378 47.764.966 3.849 5.164 10.675 9.329 15.169 8.761 9.454 9.663 18.579 2.607 26.376-7.792 8.61-15.99 6.53-28.632-7.264-21.714-23.694-22.949-28.294-19.841-73.849 2.317-33.935 2.053-40.854-1.713-45.015-3.697-4.086-3.953-8.923-1.511-28.593 1.617-13.021 4.902-26.477 7.301-29.902 4.592-6.556 5.545-22.827 2.438-41.623-1.847-11.177-5.521-16.163-25.237-34.256-9.209-8.451-25.221-25.235-55.344-58.012-5.307-5.775-10.423-12.735-11.37-15.466-.946-2.732-7.984-9.276-15.64-14.543-14.44-9.935-14.859-9.975-44.236-4.15-7.685 1.524-8.245.952-8.179-8.353.182-25.859 19.438-74.047 34.625-86.65 2.401-1.993 10.76-13.235 18.576-24.981 12.472-18.745 14.868-25.026 19.589-51.357 2.959-16.5 6.153-36.075 7.098-43.5 1.452-11.401 4.115-15.714 17.13-27.738 8.476-7.831 16.889-14.243 18.694-14.25 1.806-.007 7.206-3.385 12-7.508 11.221-9.65 15.629-9.469 18.091.746m-567.231 12.519c-.942 1.523-5.746 3.656-10.677 4.739-4.931 1.083-8.966 3.211-8.966 4.73 0 1.519-2.62 2.762-5.823 2.762-3.203 0-6.575 1.217-7.495 2.705-.919 1.487-10.111 3.662-20.427 4.833-23.008 2.611-33.527 7.404-12.664 5.771 23.543-1.843 29.802-2.702 31.409-4.309.825-.825 11.625-6.482 24-12.572 12.375-6.089 20.217-11.152 17.427-11.25-2.79-.098-5.843 1.068-6.784 2.591" fill="#fff" fill-rule="evenodd"/></svg>